<svg xmlns="http://www.w3.org/2000/svg" width="1600" height="900" viewBox="0 0 1600 900"><defs><radialGradient id="g18" cx="50%" cy="38%" r="75%">
      <stop offset="0" stop-color="#f4f0f8"/>
      <stop offset="1" stop-color="#DCD3E8"/>
    </radialGradient></defs>
    <rect width="1600" height="900" fill="url(#g18)"/>
    <circle cx="288" cy="180" r="208" fill="#FFFFFF" opacity="0.12"/>
    <circle cx="1344" cy="630" r="256" fill="#FFFFFF" opacity="0.1"/><path d="M400 450 L1200 450 L944 828 L656 828 Z" fill="#e0d8eb"/><path d="M800 450 L656 828" stroke="#cac2d4" stroke-width="9.6" opacity="0.6"/><path d="M800 450 L944 828" stroke="#cac2d4" stroke-width="9.6" opacity="0.6"/><g transform="rotate(-35 641.6 464.4)">
    <ellipse cx="641.6" cy="370.79999999999995" rx="52.41600000000001" ry="93.60000000000001" fill="#A8B89F"/>
    <line x1="641.6" y1="464.4" x2="641.6" y2="277.19999999999993" stroke="#8a9782" stroke-width="7.488"/>
  </g><g transform="rotate(35 958.4 464.4)">
    <ellipse cx="958.4" cy="370.79999999999995" rx="52.41600000000001" ry="93.60000000000001" fill="#C7D2C0"/>
    <line x1="958.4" y1="464.4" x2="958.4" y2="277.19999999999993" stroke="#a3ac9d" stroke-width="7.488"/>
  </g><g transform="rotate(0 800 507.6)">
    <ellipse cx="800" cy="421.20000000000005" rx="48.384" ry="86.39999999999999" fill="#B7C6AE"/>
    <line x1="800" y1="507.6" x2="800" y2="334.80000000000007" stroke="#96a28f" stroke-width="6.911999999999999"/>
  </g><g>
    <ellipse cx="800" cy="266.0" rx="51.40800000000001" ry="75.60000000000001" fill="#eaaebe" opacity="1" transform="rotate(0.0 800 349.2)"/><ellipse cx="800" cy="266.0" rx="51.40800000000001" ry="75.60000000000001" fill="#eaaebe" opacity="1" transform="rotate(60.0 800 349.2)"/><ellipse cx="800" cy="266.0" rx="51.40800000000001" ry="75.60000000000001" fill="#eaaebe" opacity="1" transform="rotate(120.0 800 349.2)"/><ellipse cx="800" cy="266.0" rx="51.40800000000001" ry="75.60000000000001" fill="#eaaebe" opacity="1" transform="rotate(180.0 800 349.2)"/><ellipse cx="800" cy="266.0" rx="51.40800000000001" ry="75.60000000000001" fill="#eaaebe" opacity="1" transform="rotate(240.0 800 349.2)"/><ellipse cx="800" cy="266.0" rx="51.40800000000001" ry="75.60000000000001" fill="#eaaebe" opacity="1" transform="rotate(300.0 800 349.2)"/>
    <ellipse cx="800" cy="288.7" rx="45.36000000000001" ry="63.504000000000005" fill="#E8A7B8" opacity="1" transform="rotate(30.0 800 349.2)"/><ellipse cx="800" cy="288.7" rx="45.36000000000001" ry="63.504000000000005" fill="#E8A7B8" opacity="1" transform="rotate(90.0 800 349.2)"/><ellipse cx="800" cy="288.7" rx="45.36000000000001" ry="63.504000000000005" fill="#E8A7B8" opacity="1" transform="rotate(150.0 800 349.2)"/><ellipse cx="800" cy="288.7" rx="45.36000000000001" ry="63.504000000000005" fill="#E8A7B8" opacity="1" transform="rotate(210.0 800 349.2)"/><ellipse cx="800" cy="288.7" rx="45.36000000000001" ry="63.504000000000005" fill="#E8A7B8" opacity="1" transform="rotate(270.0 800 349.2)"/><ellipse cx="800" cy="288.7" rx="45.36000000000001" ry="63.504000000000005" fill="#E8A7B8" opacity="1" transform="rotate(330.0 800 349.2)"/>
    <ellipse cx="800" cy="309.9" rx="36.288000000000004" ry="48.38400000000001" fill="#cc93a2" opacity="1" transform="rotate(12.0 800 349.2)"/><ellipse cx="800" cy="309.9" rx="36.288000000000004" ry="48.38400000000001" fill="#cc93a2" opacity="1" transform="rotate(84.0 800 349.2)"/><ellipse cx="800" cy="309.9" rx="36.288000000000004" ry="48.38400000000001" fill="#cc93a2" opacity="1" transform="rotate(156.0 800 349.2)"/><ellipse cx="800" cy="309.9" rx="36.288000000000004" ry="48.38400000000001" fill="#cc93a2" opacity="1" transform="rotate(228.0 800 349.2)"/><ellipse cx="800" cy="309.9" rx="36.288000000000004" ry="48.38400000000001" fill="#cc93a2" opacity="1" transform="rotate(300.0 800 349.2)"/>
    <circle cx="800" cy="349.2" r="33.264" fill="#b58290"/>
    <circle cx="800" cy="349.2" r="15.120000000000003" fill="#efc1cd" opacity="0.8"/>
  </g><g>
    <ellipse cx="648.8" cy="332.3" rx="41.616" ry="61.199999999999996" fill="#f3cbd6" opacity="1" transform="rotate(0.0 648.8 399.6)"/><ellipse cx="648.8" cy="332.3" rx="41.616" ry="61.199999999999996" fill="#f3cbd6" opacity="1" transform="rotate(60.0 648.8 399.6)"/><ellipse cx="648.8" cy="332.3" rx="41.616" ry="61.199999999999996" fill="#f3cbd6" opacity="1" transform="rotate(120.0 648.8 399.6)"/><ellipse cx="648.8" cy="332.3" rx="41.616" ry="61.199999999999996" fill="#f3cbd6" opacity="1" transform="rotate(180.0 648.8 399.6)"/><ellipse cx="648.8" cy="332.3" rx="41.616" ry="61.199999999999996" fill="#f3cbd6" opacity="1" transform="rotate(240.0 648.8 399.6)"/><ellipse cx="648.8" cy="332.3" rx="41.616" ry="61.199999999999996" fill="#f3cbd6" opacity="1" transform="rotate(300.0 648.8 399.6)"/>
    <ellipse cx="648.8" cy="350.6" rx="36.72" ry="51.407999999999994" fill="#F2C6D2" opacity="1" transform="rotate(30.0 648.8 399.6)"/><ellipse cx="648.8" cy="350.6" rx="36.72" ry="51.407999999999994" fill="#F2C6D2" opacity="1" transform="rotate(90.0 648.8 399.6)"/><ellipse cx="648.8" cy="350.6" rx="36.72" ry="51.407999999999994" fill="#F2C6D2" opacity="1" transform="rotate(150.0 648.8 399.6)"/><ellipse cx="648.8" cy="350.6" rx="36.72" ry="51.407999999999994" fill="#F2C6D2" opacity="1" transform="rotate(210.0 648.8 399.6)"/><ellipse cx="648.8" cy="350.6" rx="36.72" ry="51.407999999999994" fill="#F2C6D2" opacity="1" transform="rotate(270.0 648.8 399.6)"/><ellipse cx="648.8" cy="350.6" rx="36.72" ry="51.407999999999994" fill="#F2C6D2" opacity="1" transform="rotate(330.0 648.8 399.6)"/>
    <ellipse cx="648.8" cy="367.8" rx="29.375999999999998" ry="39.168" fill="#d5aeb9" opacity="1" transform="rotate(12.0 648.8 399.6)"/><ellipse cx="648.8" cy="367.8" rx="29.375999999999998" ry="39.168" fill="#d5aeb9" opacity="1" transform="rotate(84.0 648.8 399.6)"/><ellipse cx="648.8" cy="367.8" rx="29.375999999999998" ry="39.168" fill="#d5aeb9" opacity="1" transform="rotate(156.0 648.8 399.6)"/><ellipse cx="648.8" cy="367.8" rx="29.375999999999998" ry="39.168" fill="#d5aeb9" opacity="1" transform="rotate(228.0 648.8 399.6)"/><ellipse cx="648.8" cy="367.8" rx="29.375999999999998" ry="39.168" fill="#d5aeb9" opacity="1" transform="rotate(300.0 648.8 399.6)"/>
    <circle cx="648.8" cy="399.6" r="26.927999999999997" fill="#bd9aa4"/>
    <circle cx="648.8" cy="399.6" r="12.24" fill="#f6d7e0" opacity="0.8"/>
  </g><g>
      <ellipse cx="951.2" cy="323.7" rx="19.584" ry="73.44" fill="#FFFFFF" opacity="1" transform="rotate(0.0 951.2 399.6)"/><ellipse cx="951.2" cy="323.7" rx="19.584" ry="73.44" fill="#FFFFFF" opacity="1" transform="rotate(30.0 951.2 399.6)"/><ellipse cx="951.2" cy="323.7" rx="19.584" ry="73.44" fill="#FFFFFF" opacity="1" transform="rotate(60.0 951.2 399.6)"/><ellipse cx="951.2" cy="323.7" rx="19.584" ry="73.44" fill="#FFFFFF" opacity="1" transform="rotate(90.0 951.2 399.6)"/><ellipse cx="951.2" cy="323.7" rx="19.584" ry="73.44" fill="#FFFFFF" opacity="1" transform="rotate(120.0 951.2 399.6)"/><ellipse cx="951.2" cy="323.7" rx="19.584" ry="73.44" fill="#FFFFFF" opacity="1" transform="rotate(150.0 951.2 399.6)"/><ellipse cx="951.2" cy="323.7" rx="19.584" ry="73.44" fill="#FFFFFF" opacity="1" transform="rotate(180.0 951.2 399.6)"/><ellipse cx="951.2" cy="323.7" rx="19.584" ry="73.44" fill="#FFFFFF" opacity="1" transform="rotate(210.0 951.2 399.6)"/><ellipse cx="951.2" cy="323.7" rx="19.584" ry="73.44" fill="#FFFFFF" opacity="1" transform="rotate(240.0 951.2 399.6)"/><ellipse cx="951.2" cy="323.7" rx="19.584" ry="73.44" fill="#FFFFFF" opacity="1" transform="rotate(270.0 951.2 399.6)"/><ellipse cx="951.2" cy="323.7" rx="19.584" ry="73.44" fill="#FFFFFF" opacity="1" transform="rotate(300.0 951.2 399.6)"/><ellipse cx="951.2" cy="323.7" rx="19.584" ry="73.44" fill="#FFFFFF" opacity="1" transform="rotate(330.0 951.2 399.6)"/>
      <ellipse cx="951.2" cy="323.7" rx="15.911999999999999" ry="67.32000000000001" fill="#e0a1b6" opacity="1" transform="rotate(0.0 951.2 399.6)"/><ellipse cx="951.2" cy="323.7" rx="15.911999999999999" ry="67.32000000000001" fill="#e0a1b6" opacity="1" transform="rotate(30.0 951.2 399.6)"/><ellipse cx="951.2" cy="323.7" rx="15.911999999999999" ry="67.32000000000001" fill="#e0a1b6" opacity="1" transform="rotate(60.0 951.2 399.6)"/><ellipse cx="951.2" cy="323.7" rx="15.911999999999999" ry="67.32000000000001" fill="#e0a1b6" opacity="1" transform="rotate(90.0 951.2 399.6)"/><ellipse cx="951.2" cy="323.7" rx="15.911999999999999" ry="67.32000000000001" fill="#e0a1b6" opacity="1" transform="rotate(120.0 951.2 399.6)"/><ellipse cx="951.2" cy="323.7" rx="15.911999999999999" ry="67.32000000000001" fill="#e0a1b6" opacity="1" transform="rotate(150.0 951.2 399.6)"/><ellipse cx="951.2" cy="323.7" rx="15.911999999999999" ry="67.32000000000001" fill="#e0a1b6" opacity="1" transform="rotate(180.0 951.2 399.6)"/><ellipse cx="951.2" cy="323.7" rx="15.911999999999999" ry="67.32000000000001" fill="#e0a1b6" opacity="1" transform="rotate(210.0 951.2 399.6)"/><ellipse cx="951.2" cy="323.7" rx="15.911999999999999" ry="67.32000000000001" fill="#e0a1b6" opacity="1" transform="rotate(240.0 951.2 399.6)"/><ellipse cx="951.2" cy="323.7" rx="15.911999999999999" ry="67.32000000000001" fill="#e0a1b6" opacity="1" transform="rotate(270.0 951.2 399.6)"/><ellipse cx="951.2" cy="323.7" rx="15.911999999999999" ry="67.32000000000001" fill="#e0a1b6" opacity="1" transform="rotate(300.0 951.2 399.6)"/><ellipse cx="951.2" cy="323.7" rx="15.911999999999999" ry="67.32000000000001" fill="#e0a1b6" opacity="1" transform="rotate(330.0 951.2 399.6)"/>
      <circle cx="951.2" cy="399.6" r="39.168" fill="#F3D98C"/>
      <circle cx="951.2" cy="399.6" r="24.48" fill="#E6B85C"/>
    </g><g>
      <path d="M672.56 558 Q657.44 437.04 728 447.12 Q798.56 437.04 783.44 558 Q728 588.24 672.56 558 Z" fill="#E8A7B8"/>
      <path d="M709.856 449.136 Q728 547.9200000000001 746.144 449.136" fill="#cc93a2" opacity="0.5"/>
      <ellipse cx="728" cy="497.52000000000004" rx="22.176" ry="50.4" fill="#ecb7c5" opacity="0.7"/>
    </g><g>
    <ellipse cx="872" cy="452.2" rx="34.272" ry="50.4" fill="#f3cbd6" opacity="1" transform="rotate(0.0 872 507.6)"/><ellipse cx="872" cy="452.2" rx="34.272" ry="50.4" fill="#f3cbd6" opacity="1" transform="rotate(60.0 872 507.6)"/><ellipse cx="872" cy="452.2" rx="34.272" ry="50.4" fill="#f3cbd6" opacity="1" transform="rotate(120.0 872 507.6)"/><ellipse cx="872" cy="452.2" rx="34.272" ry="50.4" fill="#f3cbd6" opacity="1" transform="rotate(180.0 872 507.6)"/><ellipse cx="872" cy="452.2" rx="34.272" ry="50.4" fill="#f3cbd6" opacity="1" transform="rotate(240.0 872 507.6)"/><ellipse cx="872" cy="452.2" rx="34.272" ry="50.4" fill="#f3cbd6" opacity="1" transform="rotate(300.0 872 507.6)"/>
    <ellipse cx="872" cy="467.3" rx="30.24" ry="42.336" fill="#F2C6D2" opacity="1" transform="rotate(30.0 872 507.6)"/><ellipse cx="872" cy="467.3" rx="30.24" ry="42.336" fill="#F2C6D2" opacity="1" transform="rotate(90.0 872 507.6)"/><ellipse cx="872" cy="467.3" rx="30.24" ry="42.336" fill="#F2C6D2" opacity="1" transform="rotate(150.0 872 507.6)"/><ellipse cx="872" cy="467.3" rx="30.24" ry="42.336" fill="#F2C6D2" opacity="1" transform="rotate(210.0 872 507.6)"/><ellipse cx="872" cy="467.3" rx="30.24" ry="42.336" fill="#F2C6D2" opacity="1" transform="rotate(270.0 872 507.6)"/><ellipse cx="872" cy="467.3" rx="30.24" ry="42.336" fill="#F2C6D2" opacity="1" transform="rotate(330.0 872 507.6)"/>
    <ellipse cx="872" cy="481.4" rx="24.192" ry="32.256" fill="#d5aeb9" opacity="1" transform="rotate(12.0 872 507.6)"/><ellipse cx="872" cy="481.4" rx="24.192" ry="32.256" fill="#d5aeb9" opacity="1" transform="rotate(84.0 872 507.6)"/><ellipse cx="872" cy="481.4" rx="24.192" ry="32.256" fill="#d5aeb9" opacity="1" transform="rotate(156.0 872 507.6)"/><ellipse cx="872" cy="481.4" rx="24.192" ry="32.256" fill="#d5aeb9" opacity="1" transform="rotate(228.0 872 507.6)"/><ellipse cx="872" cy="481.4" rx="24.192" ry="32.256" fill="#d5aeb9" opacity="1" transform="rotate(300.0 872 507.6)"/>
    <circle cx="872" cy="507.6" r="22.176" fill="#bd9aa4"/>
    <circle cx="872" cy="507.6" r="10.08" fill="#f6d7e0" opacity="0.8"/>
  </g><circle cx="800" cy="639" r="48" fill="#c0b1da"/></svg>