<svg xmlns="http://www.w3.org/2000/svg" width="1000" height="800" viewBox="0 0 1000 800"><defs><radialGradient id="g17" cx="50%" cy="38%" r="75%">
      <stop offset="0" stop-color="#eff4ec"/>
      <stop offset="1" stop-color="#CFDcC8"/>
    </radialGradient></defs>
    <rect width="1000" height="800" fill="url(#g17)"/>
    <circle cx="180" cy="160" r="130" fill="#FFFFFF" opacity="0.12"/>
    <circle cx="840" cy="560" r="160" fill="#FFFFFF" opacity="0.1"/><path d="M250 400 L750 400 L590 736 L410 736 Z" fill="#d5e0cf"/><path d="M500 400 L410 736" stroke="#c0caba" stroke-width="6" opacity="0.6"/><path d="M500 400 L590 736" stroke="#c0caba" stroke-width="6" opacity="0.6"/><g transform="rotate(-35 359.2 412.8)">
    <ellipse cx="359.2" cy="329.6" rx="46.592000000000006" ry="83.2" fill="#A8B89F"/>
    <line x1="359.2" y1="412.8" x2="359.2" y2="246.4" stroke="#8a9782" stroke-width="6.656000000000001"/>
  </g><g transform="rotate(35 640.8 412.8)">
    <ellipse cx="640.8" cy="329.6" rx="46.592000000000006" ry="83.2" fill="#C7D2C0"/>
    <line x1="640.8" y1="412.8" x2="640.8" y2="246.4" stroke="#a3ac9d" stroke-width="6.656000000000001"/>
  </g><g transform="rotate(0 500 451.2)">
    <ellipse cx="500" cy="374.4" rx="43.008" ry="76.8" fill="#B7C6AE"/>
    <line x1="500" y1="451.2" x2="500" y2="297.6" stroke="#96a28f" stroke-width="6.144"/>
  </g><g>
    <ellipse cx="500" cy="236.5" rx="45.696000000000005" ry="67.2" fill="#bfafd9" opacity="1" transform="rotate(0.0 500 310.4)"/><ellipse cx="500" cy="236.5" rx="45.696000000000005" ry="67.2" fill="#bfafd9" opacity="1" transform="rotate(60.0 500 310.4)"/><ellipse cx="500" cy="236.5" rx="45.696000000000005" ry="67.2" fill="#bfafd9" opacity="1" transform="rotate(120.0 500 310.4)"/><ellipse cx="500" cy="236.5" rx="45.696000000000005" ry="67.2" fill="#bfafd9" opacity="1" transform="rotate(180.0 500 310.4)"/><ellipse cx="500" cy="236.5" rx="45.696000000000005" ry="67.2" fill="#bfafd9" opacity="1" transform="rotate(240.0 500 310.4)"/><ellipse cx="500" cy="236.5" rx="45.696000000000005" ry="67.2" fill="#bfafd9" opacity="1" transform="rotate(300.0 500 310.4)"/>
    <ellipse cx="500" cy="256.6" rx="40.32" ry="56.448" fill="#B9A8D6" opacity="1" transform="rotate(30.0 500 310.4)"/><ellipse cx="500" cy="256.6" rx="40.32" ry="56.448" fill="#B9A8D6" opacity="1" transform="rotate(90.0 500 310.4)"/><ellipse cx="500" cy="256.6" rx="40.32" ry="56.448" fill="#B9A8D6" opacity="1" transform="rotate(150.0 500 310.4)"/><ellipse cx="500" cy="256.6" rx="40.32" ry="56.448" fill="#B9A8D6" opacity="1" transform="rotate(210.0 500 310.4)"/><ellipse cx="500" cy="256.6" rx="40.32" ry="56.448" fill="#B9A8D6" opacity="1" transform="rotate(270.0 500 310.4)"/><ellipse cx="500" cy="256.6" rx="40.32" ry="56.448" fill="#B9A8D6" opacity="1" transform="rotate(330.0 500 310.4)"/>
    <ellipse cx="500" cy="275.5" rx="32.256" ry="43.008" fill="#a394bc" opacity="1" transform="rotate(12.0 500 310.4)"/><ellipse cx="500" cy="275.5" rx="32.256" ry="43.008" fill="#a394bc" opacity="1" transform="rotate(84.0 500 310.4)"/><ellipse cx="500" cy="275.5" rx="32.256" ry="43.008" fill="#a394bc" opacity="1" transform="rotate(156.0 500 310.4)"/><ellipse cx="500" cy="275.5" rx="32.256" ry="43.008" fill="#a394bc" opacity="1" transform="rotate(228.0 500 310.4)"/><ellipse cx="500" cy="275.5" rx="32.256" ry="43.008" fill="#a394bc" opacity="1" transform="rotate(300.0 500 310.4)"/>
    <circle cx="500" cy="310.4" r="29.568" fill="#9083a7"/>
    <circle cx="500" cy="310.4" r="13.440000000000001" fill="#cec2e2" opacity="0.8"/>
  </g><g>
    <ellipse cx="365.6" cy="295.4" rx="36.992000000000004" ry="54.4" fill="#d7cbea" opacity="1" transform="rotate(0.0 365.6 355.2)"/><ellipse cx="365.6" cy="295.4" rx="36.992000000000004" ry="54.4" fill="#d7cbea" opacity="1" transform="rotate(60.0 365.6 355.2)"/><ellipse cx="365.6" cy="295.4" rx="36.992000000000004" ry="54.4" fill="#d7cbea" opacity="1" transform="rotate(120.0 365.6 355.2)"/><ellipse cx="365.6" cy="295.4" rx="36.992000000000004" ry="54.4" fill="#d7cbea" opacity="1" transform="rotate(180.0 365.6 355.2)"/><ellipse cx="365.6" cy="295.4" rx="36.992000000000004" ry="54.4" fill="#d7cbea" opacity="1" transform="rotate(240.0 365.6 355.2)"/><ellipse cx="365.6" cy="295.4" rx="36.992000000000004" ry="54.4" fill="#d7cbea" opacity="1" transform="rotate(300.0 365.6 355.2)"/>
    <ellipse cx="365.6" cy="311.7" rx="32.64" ry="45.696" fill="#D3C6E8" opacity="1" transform="rotate(30.0 365.6 355.2)"/><ellipse cx="365.6" cy="311.7" rx="32.64" ry="45.696" fill="#D3C6E8" opacity="1" transform="rotate(90.0 365.6 355.2)"/><ellipse cx="365.6" cy="311.7" rx="32.64" ry="45.696" fill="#D3C6E8" opacity="1" transform="rotate(150.0 365.6 355.2)"/><ellipse cx="365.6" cy="311.7" rx="32.64" ry="45.696" fill="#D3C6E8" opacity="1" transform="rotate(210.0 365.6 355.2)"/><ellipse cx="365.6" cy="311.7" rx="32.64" ry="45.696" fill="#D3C6E8" opacity="1" transform="rotate(270.0 365.6 355.2)"/><ellipse cx="365.6" cy="311.7" rx="32.64" ry="45.696" fill="#D3C6E8" opacity="1" transform="rotate(330.0 365.6 355.2)"/>
    <ellipse cx="365.6" cy="326.9" rx="26.112" ry="34.816" fill="#baaecc" opacity="1" transform="rotate(12.0 365.6 355.2)"/><ellipse cx="365.6" cy="326.9" rx="26.112" ry="34.816" fill="#baaecc" opacity="1" transform="rotate(84.0 365.6 355.2)"/><ellipse cx="365.6" cy="326.9" rx="26.112" ry="34.816" fill="#baaecc" opacity="1" transform="rotate(156.0 365.6 355.2)"/><ellipse cx="365.6" cy="326.9" rx="26.112" ry="34.816" fill="#baaecc" opacity="1" transform="rotate(228.0 365.6 355.2)"/><ellipse cx="365.6" cy="326.9" rx="26.112" ry="34.816" fill="#baaecc" opacity="1" transform="rotate(300.0 365.6 355.2)"/>
    <circle cx="365.6" cy="355.2" r="23.936" fill="#a59ab5"/>
    <circle cx="365.6" cy="355.2" r="10.88" fill="#e0d7ef" opacity="0.8"/>
  </g><g>
      <ellipse cx="634.4" cy="287.7" rx="17.408" ry="65.28" fill="#FFFFFF" opacity="1" transform="rotate(0.0 634.4 355.2)"/><ellipse cx="634.4" cy="287.7" rx="17.408" ry="65.28" fill="#FFFFFF" opacity="1" transform="rotate(30.0 634.4 355.2)"/><ellipse cx="634.4" cy="287.7" rx="17.408" ry="65.28" fill="#FFFFFF" opacity="1" transform="rotate(60.0 634.4 355.2)"/><ellipse cx="634.4" cy="287.7" rx="17.408" ry="65.28" fill="#FFFFFF" opacity="1" transform="rotate(90.0 634.4 355.2)"/><ellipse cx="634.4" cy="287.7" rx="17.408" ry="65.28" fill="#FFFFFF" opacity="1" transform="rotate(120.0 634.4 355.2)"/><ellipse cx="634.4" cy="287.7" rx="17.408" ry="65.28" fill="#FFFFFF" opacity="1" transform="rotate(150.0 634.4 355.2)"/><ellipse cx="634.4" cy="287.7" rx="17.408" ry="65.28" fill="#FFFFFF" opacity="1" transform="rotate(180.0 634.4 355.2)"/><ellipse cx="634.4" cy="287.7" rx="17.408" ry="65.28" fill="#FFFFFF" opacity="1" transform="rotate(210.0 634.4 355.2)"/><ellipse cx="634.4" cy="287.7" rx="17.408" ry="65.28" fill="#FFFFFF" opacity="1" transform="rotate(240.0 634.4 355.2)"/><ellipse cx="634.4" cy="287.7" rx="17.408" ry="65.28" fill="#FFFFFF" opacity="1" transform="rotate(270.0 634.4 355.2)"/><ellipse cx="634.4" cy="287.7" rx="17.408" ry="65.28" fill="#FFFFFF" opacity="1" transform="rotate(300.0 634.4 355.2)"/><ellipse cx="634.4" cy="287.7" rx="17.408" ry="65.28" fill="#FFFFFF" opacity="1" transform="rotate(330.0 634.4 355.2)"/>
      <ellipse cx="634.4" cy="287.7" rx="14.144" ry="59.84" fill="#b8a6d5" opacity="1" transform="rotate(0.0 634.4 355.2)"/><ellipse cx="634.4" cy="287.7" rx="14.144" ry="59.84" fill="#b8a6d5" opacity="1" transform="rotate(30.0 634.4 355.2)"/><ellipse cx="634.4" cy="287.7" rx="14.144" ry="59.84" fill="#b8a6d5" opacity="1" transform="rotate(60.0 634.4 355.2)"/><ellipse cx="634.4" cy="287.7" rx="14.144" ry="59.84" fill="#b8a6d5" opacity="1" transform="rotate(90.0 634.4 355.2)"/><ellipse cx="634.4" cy="287.7" rx="14.144" ry="59.84" fill="#b8a6d5" opacity="1" transform="rotate(120.0 634.4 355.2)"/><ellipse cx="634.4" cy="287.7" rx="14.144" ry="59.84" fill="#b8a6d5" opacity="1" transform="rotate(150.0 634.4 355.2)"/><ellipse cx="634.4" cy="287.7" rx="14.144" ry="59.84" fill="#b8a6d5" opacity="1" transform="rotate(180.0 634.4 355.2)"/><ellipse cx="634.4" cy="287.7" rx="14.144" ry="59.84" fill="#b8a6d5" opacity="1" transform="rotate(210.0 634.4 355.2)"/><ellipse cx="634.4" cy="287.7" rx="14.144" ry="59.84" fill="#b8a6d5" opacity="1" transform="rotate(240.0 634.4 355.2)"/><ellipse cx="634.4" cy="287.7" rx="14.144" ry="59.84" fill="#b8a6d5" opacity="1" transform="rotate(270.0 634.4 355.2)"/><ellipse cx="634.4" cy="287.7" rx="14.144" ry="59.84" fill="#b8a6d5" opacity="1" transform="rotate(300.0 634.4 355.2)"/><ellipse cx="634.4" cy="287.7" rx="14.144" ry="59.84" fill="#b8a6d5" opacity="1" transform="rotate(330.0 634.4 355.2)"/>
      <circle cx="634.4" cy="355.2" r="34.816" fill="#F3D98C"/>
      <circle cx="634.4" cy="355.2" r="21.76" fill="#E6B85C"/>
    </g><g>
      <path d="M386.72 496 Q373.28000000000003 388.48 436 397.44 Q498.71999999999997 388.48 485.28 496 Q436 522.88 386.72 496 Z" fill="#B9A8D6"/>
      <path d="M419.872 399.23199999999997 Q436 487.03999999999996 452.128 399.23199999999997" fill="#a394bc" opacity="0.5"/>
      <ellipse cx="436" cy="442.24" rx="19.712" ry="44.8" fill="#c6b8dd" opacity="0.7"/>
    </g><g>
    <ellipse cx="564" cy="401.9" rx="30.464" ry="44.8" fill="#d7cbea" opacity="1" transform="rotate(0.0 564 451.2)"/><ellipse cx="564" cy="401.9" rx="30.464" ry="44.8" fill="#d7cbea" opacity="1" transform="rotate(60.0 564 451.2)"/><ellipse cx="564" cy="401.9" rx="30.464" ry="44.8" fill="#d7cbea" opacity="1" transform="rotate(120.0 564 451.2)"/><ellipse cx="564" cy="401.9" rx="30.464" ry="44.8" fill="#d7cbea" opacity="1" transform="rotate(180.0 564 451.2)"/><ellipse cx="564" cy="401.9" rx="30.464" ry="44.8" fill="#d7cbea" opacity="1" transform="rotate(240.0 564 451.2)"/><ellipse cx="564" cy="401.9" rx="30.464" ry="44.8" fill="#d7cbea" opacity="1" transform="rotate(300.0 564 451.2)"/>
    <ellipse cx="564" cy="415.4" rx="26.88" ry="37.632" fill="#D3C6E8" opacity="1" transform="rotate(30.0 564 451.2)"/><ellipse cx="564" cy="415.4" rx="26.88" ry="37.632" fill="#D3C6E8" opacity="1" transform="rotate(90.0 564 451.2)"/><ellipse cx="564" cy="415.4" rx="26.88" ry="37.632" fill="#D3C6E8" opacity="1" transform="rotate(150.0 564 451.2)"/><ellipse cx="564" cy="415.4" rx="26.88" ry="37.632" fill="#D3C6E8" opacity="1" transform="rotate(210.0 564 451.2)"/><ellipse cx="564" cy="415.4" rx="26.88" ry="37.632" fill="#D3C6E8" opacity="1" transform="rotate(270.0 564 451.2)"/><ellipse cx="564" cy="415.4" rx="26.88" ry="37.632" fill="#D3C6E8" opacity="1" transform="rotate(330.0 564 451.2)"/>
    <ellipse cx="564" cy="427.9" rx="21.503999999999998" ry="28.671999999999997" fill="#baaecc" opacity="1" transform="rotate(12.0 564 451.2)"/><ellipse cx="564" cy="427.9" rx="21.503999999999998" ry="28.671999999999997" fill="#baaecc" opacity="1" transform="rotate(84.0 564 451.2)"/><ellipse cx="564" cy="427.9" rx="21.503999999999998" ry="28.671999999999997" fill="#baaecc" opacity="1" transform="rotate(156.0 564 451.2)"/><ellipse cx="564" cy="427.9" rx="21.503999999999998" ry="28.671999999999997" fill="#baaecc" opacity="1" transform="rotate(228.0 564 451.2)"/><ellipse cx="564" cy="427.9" rx="21.503999999999998" ry="28.671999999999997" fill="#baaecc" opacity="1" transform="rotate(300.0 564 451.2)"/>
    <circle cx="564" cy="451.2" r="19.712" fill="#a59ab5"/>
    <circle cx="564" cy="451.2" r="8.959999999999999" fill="#e0d7ef" opacity="0.8"/>
  </g><circle cx="500" cy="568" r="30" fill="#b1bfa9"/></svg>