<svg xmlns="http://www.w3.org/2000/svg" width="1600" height="900" viewBox="0 0 1600 900">
  <defs>
    <linearGradient id="gghbb4" x1="0" y1="0" x2="1" y2="1">
      <stop offset="0" stop-color="#EEE9F3"/>
      <stop offset="1" stop-color="#DCD3E8"/>
    </linearGradient>
  </defs>
  <rect width="1600" height="900" fill="url(#gghbb4)"/>
  <g transform="translate(800 414) scale(5)"><ellipse cx="26.0" cy="0.0" rx="16" ry="24" fill="#EEE9F3" opacity="0.9" transform="rotate(0 26.0 0.0)"/><ellipse cx="13.0" cy="22.5" rx="16" ry="24" fill="#EEE9F3" opacity="0.9" transform="rotate(60 13.0 22.5)"/><ellipse cx="-13.0" cy="22.5" rx="16" ry="24" fill="#EEE9F3" opacity="0.9" transform="rotate(120 -13.0 22.5)"/><ellipse cx="-26.0" cy="0.0" rx="16" ry="24" fill="#EEE9F3" opacity="0.9" transform="rotate(180 -26.0 0.0)"/><ellipse cx="-13.0" cy="-22.5" rx="16" ry="24" fill="#EEE9F3" opacity="0.9" transform="rotate(240 -13.0 -22.5)"/><ellipse cx="13.0" cy="-22.5" rx="16" ry="24" fill="#EEE9F3" opacity="0.9" transform="rotate(300 13.0 -22.5)"/><circle cx="0" cy="0" r="14" fill="#C3B6D9"/></g>
  <g transform="translate(448.00000000000006 558) scale(3.75)"><ellipse cx="26.0" cy="0.0" rx="16" ry="24" fill="#ffffff" opacity="0.9" transform="rotate(0 26.0 0.0)"/><ellipse cx="13.0" cy="22.5" rx="16" ry="24" fill="#ffffff" opacity="0.9" transform="rotate(60 13.0 22.5)"/><ellipse cx="-13.0" cy="22.5" rx="16" ry="24" fill="#ffffff" opacity="0.9" transform="rotate(120 -13.0 22.5)"/><ellipse cx="-26.0" cy="0.0" rx="16" ry="24" fill="#ffffff" opacity="0.9" transform="rotate(180 -26.0 0.0)"/><ellipse cx="-13.0" cy="-22.5" rx="16" ry="24" fill="#ffffff" opacity="0.9" transform="rotate(240 -13.0 -22.5)"/><ellipse cx="13.0" cy="-22.5" rx="16" ry="24" fill="#ffffff" opacity="0.9" transform="rotate(300 13.0 -22.5)"/><circle cx="0" cy="0" r="14" fill="#C3B6D9"/></g>
  <g transform="translate(1152 540) scale(3.75)"><ellipse cx="26.0" cy="0.0" rx="16" ry="24" fill="#ffffff" opacity="0.9" transform="rotate(0 26.0 0.0)"/><ellipse cx="13.0" cy="22.5" rx="16" ry="24" fill="#ffffff" opacity="0.9" transform="rotate(60 13.0 22.5)"/><ellipse cx="-13.0" cy="22.5" rx="16" ry="24" fill="#ffffff" opacity="0.9" transform="rotate(120 -13.0 22.5)"/><ellipse cx="-26.0" cy="0.0" rx="16" ry="24" fill="#ffffff" opacity="0.9" transform="rotate(180 -26.0 0.0)"/><ellipse cx="-13.0" cy="-22.5" rx="16" ry="24" fill="#ffffff" opacity="0.9" transform="rotate(240 -13.0 -22.5)"/><ellipse cx="13.0" cy="-22.5" rx="16" ry="24" fill="#ffffff" opacity="0.9" transform="rotate(300 13.0 -22.5)"/><circle cx="0" cy="0" r="14" fill="#C3B6D9"/></g>
  <path d="M800 495.00000000000006 L800 765" stroke="#C3B6D9" stroke-width="8" stroke-linecap="round" opacity="0.6"/>
</svg>