<svg xmlns="http://www.w3.org/2000/svg" width="1000" height="800" viewBox="0 0 1000 800">
  <defs>
    <linearGradient id="gaioi0" x1="0" y1="0" x2="1" y2="1">
      <stop offset="0" stop-color="#E2E9DD"/>
      <stop offset="1" stop-color="#C7D2C0"/>
    </linearGradient>
  </defs>
  <rect width="1000" height="800" fill="url(#gaioi0)"/>
  <g transform="translate(500 368) scale(4.444444444444445)"><ellipse cx="26.0" cy="0.0" rx="16" ry="24" fill="#E2E9DD" opacity="0.9" transform="rotate(0 26.0 0.0)"/><ellipse cx="13.0" cy="22.5" rx="16" ry="24" fill="#E2E9DD" opacity="0.9" transform="rotate(60 13.0 22.5)"/><ellipse cx="-13.0" cy="22.5" rx="16" ry="24" fill="#E2E9DD" opacity="0.9" transform="rotate(120 -13.0 22.5)"/><ellipse cx="-26.0" cy="0.0" rx="16" ry="24" fill="#E2E9DD" opacity="0.9" transform="rotate(180 -26.0 0.0)"/><ellipse cx="-13.0" cy="-22.5" rx="16" ry="24" fill="#E2E9DD" opacity="0.9" transform="rotate(240 -13.0 -22.5)"/><ellipse cx="13.0" cy="-22.5" rx="16" ry="24" fill="#E2E9DD" opacity="0.9" transform="rotate(300 13.0 -22.5)"/><circle cx="0" cy="0" r="14" fill="#A8B89F"/></g>
  <g transform="translate(280 496) scale(3.3333333333333335)"><ellipse cx="26.0" cy="0.0" rx="16" ry="24" fill="#ffffff" opacity="0.9" transform="rotate(0 26.0 0.0)"/><ellipse cx="13.0" cy="22.5" rx="16" ry="24" fill="#ffffff" opacity="0.9" transform="rotate(60 13.0 22.5)"/><ellipse cx="-13.0" cy="22.5" rx="16" ry="24" fill="#ffffff" opacity="0.9" transform="rotate(120 -13.0 22.5)"/><ellipse cx="-26.0" cy="0.0" rx="16" ry="24" fill="#ffffff" opacity="0.9" transform="rotate(180 -26.0 0.0)"/><ellipse cx="-13.0" cy="-22.5" rx="16" ry="24" fill="#ffffff" opacity="0.9" transform="rotate(240 -13.0 -22.5)"/><ellipse cx="13.0" cy="-22.5" rx="16" ry="24" fill="#ffffff" opacity="0.9" transform="rotate(300 13.0 -22.5)"/><circle cx="0" cy="0" r="14" fill="#A8B89F"/></g>
  <g transform="translate(720 480) scale(3.3333333333333335)"><ellipse cx="26.0" cy="0.0" rx="16" ry="24" fill="#ffffff" opacity="0.9" transform="rotate(0 26.0 0.0)"/><ellipse cx="13.0" cy="22.5" rx="16" ry="24" fill="#ffffff" opacity="0.9" transform="rotate(60 13.0 22.5)"/><ellipse cx="-13.0" cy="22.5" rx="16" ry="24" fill="#ffffff" opacity="0.9" transform="rotate(120 -13.0 22.5)"/><ellipse cx="-26.0" cy="0.0" rx="16" ry="24" fill="#ffffff" opacity="0.9" transform="rotate(180 -26.0 0.0)"/><ellipse cx="-13.0" cy="-22.5" rx="16" ry="24" fill="#ffffff" opacity="0.9" transform="rotate(240 -13.0 -22.5)"/><ellipse cx="13.0" cy="-22.5" rx="16" ry="24" fill="#ffffff" opacity="0.9" transform="rotate(300 13.0 -22.5)"/><circle cx="0" cy="0" r="14" fill="#A8B89F"/></g>
  <path d="M500 440.00000000000006 L500 680" stroke="#A8B89F" stroke-width="5" stroke-linecap="round" opacity="0.6"/>
</svg>