<svg xmlns="http://www.w3.org/2000/svg" width="600" height="600" viewBox="0 0 600 600">
  <defs>
    <linearGradient id="gnkwk3" x1="0" y1="0" x2="1" y2="1">
      <stop offset="0" stop-color="#FCEbe0"/>
      <stop offset="1" stop-color="#F6D5C2"/>
    </linearGradient>
  </defs>
  <rect width="600" height="600" fill="url(#gnkwk3)"/>
  <g transform="translate(300 276) scale(3.3333333333333335)"><ellipse cx="26.0" cy="0.0" rx="16" ry="24" fill="#FCEbe0" opacity="0.9" transform="rotate(0 26.0 0.0)"/><ellipse cx="13.0" cy="22.5" rx="16" ry="24" fill="#FCEbe0" opacity="0.9" transform="rotate(60 13.0 22.5)"/><ellipse cx="-13.0" cy="22.5" rx="16" ry="24" fill="#FCEbe0" opacity="0.9" transform="rotate(120 -13.0 22.5)"/><ellipse cx="-26.0" cy="0.0" rx="16" ry="24" fill="#FCEbe0" opacity="0.9" transform="rotate(180 -26.0 0.0)"/><ellipse cx="-13.0" cy="-22.5" rx="16" ry="24" fill="#FCEbe0" opacity="0.9" transform="rotate(240 -13.0 -22.5)"/><ellipse cx="13.0" cy="-22.5" rx="16" ry="24" fill="#FCEbe0" opacity="0.9" transform="rotate(300 13.0 -22.5)"/><circle cx="0" cy="0" r="14" fill="#EBB89E"/></g>
  <g transform="translate(168.00000000000003 372) scale(2.5)"><ellipse cx="26.0" cy="0.0" rx="16" ry="24" fill="#ffffff" opacity="0.9" transform="rotate(0 26.0 0.0)"/><ellipse cx="13.0" cy="22.5" rx="16" ry="24" fill="#ffffff" opacity="0.9" transform="rotate(60 13.0 22.5)"/><ellipse cx="-13.0" cy="22.5" rx="16" ry="24" fill="#ffffff" opacity="0.9" transform="rotate(120 -13.0 22.5)"/><ellipse cx="-26.0" cy="0.0" rx="16" ry="24" fill="#ffffff" opacity="0.9" transform="rotate(180 -26.0 0.0)"/><ellipse cx="-13.0" cy="-22.5" rx="16" ry="24" fill="#ffffff" opacity="0.9" transform="rotate(240 -13.0 -22.5)"/><ellipse cx="13.0" cy="-22.5" rx="16" ry="24" fill="#ffffff" opacity="0.9" transform="rotate(300 13.0 -22.5)"/><circle cx="0" cy="0" r="14" fill="#EBB89E"/></g>
  <g transform="translate(432 360) scale(2.5)"><ellipse cx="26.0" cy="0.0" rx="16" ry="24" fill="#ffffff" opacity="0.9" transform="rotate(0 26.0 0.0)"/><ellipse cx="13.0" cy="22.5" rx="16" ry="24" fill="#ffffff" opacity="0.9" transform="rotate(60 13.0 22.5)"/><ellipse cx="-13.0" cy="22.5" rx="16" ry="24" fill="#ffffff" opacity="0.9" transform="rotate(120 -13.0 22.5)"/><ellipse cx="-26.0" cy="0.0" rx="16" ry="24" fill="#ffffff" opacity="0.9" transform="rotate(180 -26.0 0.0)"/><ellipse cx="-13.0" cy="-22.5" rx="16" ry="24" fill="#ffffff" opacity="0.9" transform="rotate(240 -13.0 -22.5)"/><ellipse cx="13.0" cy="-22.5" rx="16" ry="24" fill="#ffffff" opacity="0.9" transform="rotate(300 13.0 -22.5)"/><circle cx="0" cy="0" r="14" fill="#EBB89E"/></g>
  <path d="M300 330 L300 510" stroke="#EBB89E" stroke-width="3" stroke-linecap="round" opacity="0.6"/>
</svg>