<svg xmlns="http://www.w3.org/2000/svg" width="600" height="600" viewBox="0 0 600 600"><defs><radialGradient id="g13" cx="50%" cy="38%" r="75%">
      <stop offset="0" stop-color="#eff4ec"/>
      <stop offset="1" stop-color="#CFDcC8"/>
    </radialGradient></defs>
    <rect width="600" height="600" fill="url(#g13)"/>
    <circle cx="108" cy="120" r="78" fill="#FFFFFF" opacity="0.12"/>
    <circle cx="504" cy="420" r="96" fill="#FFFFFF" opacity="0.1"/><path d="M150 300 L450 300 L354 552 L246 552 Z" fill="#d5e0cf"/><path d="M300 300 L246 552" stroke="#c0caba" stroke-width="3.6" opacity="0.6"/><path d="M300 300 L354 552" stroke="#c0caba" stroke-width="3.6" opacity="0.6"/><g transform="rotate(-35 194.39999999999998 309.6)">
    <ellipse cx="194.39999999999998" cy="247.20000000000002" rx="34.94400000000001" ry="62.400000000000006" fill="#A8B89F"/>
    <line x1="194.39999999999998" y1="309.6" x2="194.39999999999998" y2="184.8" stroke="#8a9782" stroke-width="4.992000000000001"/>
  </g><g transform="rotate(35 405.6 309.6)">
    <ellipse cx="405.6" cy="247.20000000000002" rx="34.94400000000001" ry="62.400000000000006" fill="#C7D2C0"/>
    <line x1="405.6" y1="309.6" x2="405.6" y2="184.8" stroke="#a3ac9d" stroke-width="4.992000000000001"/>
  </g><g transform="rotate(0 300 338.4)">
    <ellipse cx="300" cy="280.79999999999995" rx="32.256" ry="57.599999999999994" fill="#B7C6AE"/>
    <line x1="300" y1="338.4" x2="300" y2="223.2" stroke="#96a28f" stroke-width="4.608"/>
  </g><g>
    <ellipse cx="300" cy="177.4" rx="34.272000000000006" ry="50.400000000000006" fill="#eaaebe" opacity="1" transform="rotate(0.0 300 232.8)"/><ellipse cx="300" cy="177.4" rx="34.272000000000006" ry="50.400000000000006" fill="#eaaebe" opacity="1" transform="rotate(60.0 300 232.8)"/><ellipse cx="300" cy="177.4" rx="34.272000000000006" ry="50.400000000000006" fill="#eaaebe" opacity="1" transform="rotate(120.0 300 232.8)"/><ellipse cx="300" cy="177.4" rx="34.272000000000006" ry="50.400000000000006" fill="#eaaebe" opacity="1" transform="rotate(180.0 300 232.8)"/><ellipse cx="300" cy="177.4" rx="34.272000000000006" ry="50.400000000000006" fill="#eaaebe" opacity="1" transform="rotate(240.0 300 232.8)"/><ellipse cx="300" cy="177.4" rx="34.272000000000006" ry="50.400000000000006" fill="#eaaebe" opacity="1" transform="rotate(300.0 300 232.8)"/>
    <ellipse cx="300" cy="192.5" rx="30.240000000000002" ry="42.336000000000006" fill="#E8A7B8" opacity="1" transform="rotate(30.0 300 232.8)"/><ellipse cx="300" cy="192.5" rx="30.240000000000002" ry="42.336000000000006" fill="#E8A7B8" opacity="1" transform="rotate(90.0 300 232.8)"/><ellipse cx="300" cy="192.5" rx="30.240000000000002" ry="42.336000000000006" fill="#E8A7B8" opacity="1" transform="rotate(150.0 300 232.8)"/><ellipse cx="300" cy="192.5" rx="30.240000000000002" ry="42.336000000000006" fill="#E8A7B8" opacity="1" transform="rotate(210.0 300 232.8)"/><ellipse cx="300" cy="192.5" rx="30.240000000000002" ry="42.336000000000006" fill="#E8A7B8" opacity="1" transform="rotate(270.0 300 232.8)"/><ellipse cx="300" cy="192.5" rx="30.240000000000002" ry="42.336000000000006" fill="#E8A7B8" opacity="1" transform="rotate(330.0 300 232.8)"/>
    <ellipse cx="300" cy="206.6" rx="24.192" ry="32.25600000000001" fill="#cc93a2" opacity="1" transform="rotate(12.0 300 232.8)"/><ellipse cx="300" cy="206.6" rx="24.192" ry="32.25600000000001" fill="#cc93a2" opacity="1" transform="rotate(84.0 300 232.8)"/><ellipse cx="300" cy="206.6" rx="24.192" ry="32.25600000000001" fill="#cc93a2" opacity="1" transform="rotate(156.0 300 232.8)"/><ellipse cx="300" cy="206.6" rx="24.192" ry="32.25600000000001" fill="#cc93a2" opacity="1" transform="rotate(228.0 300 232.8)"/><ellipse cx="300" cy="206.6" rx="24.192" ry="32.25600000000001" fill="#cc93a2" opacity="1" transform="rotate(300.0 300 232.8)"/>
    <circle cx="300" cy="232.8" r="22.176000000000002" fill="#b58290"/>
    <circle cx="300" cy="232.8" r="10.080000000000002" fill="#efc1cd" opacity="0.8"/>
  </g><g>
    <ellipse cx="199.2" cy="221.5" rx="27.744" ry="40.8" fill="#f3dc95" opacity="1" transform="rotate(0.0 199.2 266.4)"/><ellipse cx="199.2" cy="221.5" rx="27.744" ry="40.8" fill="#f3dc95" opacity="1" transform="rotate(60.0 199.2 266.4)"/><ellipse cx="199.2" cy="221.5" rx="27.744" ry="40.8" fill="#f3dc95" opacity="1" transform="rotate(120.0 199.2 266.4)"/><ellipse cx="199.2" cy="221.5" rx="27.744" ry="40.8" fill="#f3dc95" opacity="1" transform="rotate(180.0 199.2 266.4)"/><ellipse cx="199.2" cy="221.5" rx="27.744" ry="40.8" fill="#f3dc95" opacity="1" transform="rotate(240.0 199.2 266.4)"/><ellipse cx="199.2" cy="221.5" rx="27.744" ry="40.8" fill="#f3dc95" opacity="1" transform="rotate(300.0 199.2 266.4)"/>
    <ellipse cx="199.2" cy="233.8" rx="24.479999999999997" ry="34.272" fill="#F2D98C" opacity="1" transform="rotate(30.0 199.2 266.4)"/><ellipse cx="199.2" cy="233.8" rx="24.479999999999997" ry="34.272" fill="#F2D98C" opacity="1" transform="rotate(90.0 199.2 266.4)"/><ellipse cx="199.2" cy="233.8" rx="24.479999999999997" ry="34.272" fill="#F2D98C" opacity="1" transform="rotate(150.0 199.2 266.4)"/><ellipse cx="199.2" cy="233.8" rx="24.479999999999997" ry="34.272" fill="#F2D98C" opacity="1" transform="rotate(210.0 199.2 266.4)"/><ellipse cx="199.2" cy="233.8" rx="24.479999999999997" ry="34.272" fill="#F2D98C" opacity="1" transform="rotate(270.0 199.2 266.4)"/><ellipse cx="199.2" cy="233.8" rx="24.479999999999997" ry="34.272" fill="#F2D98C" opacity="1" transform="rotate(330.0 199.2 266.4)"/>
    <ellipse cx="199.2" cy="245.2" rx="19.584" ry="26.112" fill="#d5bf7b" opacity="1" transform="rotate(12.0 199.2 266.4)"/><ellipse cx="199.2" cy="245.2" rx="19.584" ry="26.112" fill="#d5bf7b" opacity="1" transform="rotate(84.0 199.2 266.4)"/><ellipse cx="199.2" cy="245.2" rx="19.584" ry="26.112" fill="#d5bf7b" opacity="1" transform="rotate(156.0 199.2 266.4)"/><ellipse cx="199.2" cy="245.2" rx="19.584" ry="26.112" fill="#d5bf7b" opacity="1" transform="rotate(228.0 199.2 266.4)"/><ellipse cx="199.2" cy="245.2" rx="19.584" ry="26.112" fill="#d5bf7b" opacity="1" transform="rotate(300.0 199.2 266.4)"/>
    <circle cx="199.2" cy="266.4" r="17.951999999999998" fill="#bda96d"/>
    <circle cx="199.2" cy="266.4" r="8.16" fill="#f6e4af" opacity="0.8"/>
  </g><g>
      <ellipse cx="400.8" cy="215.8" rx="13.056" ry="48.959999999999994" fill="#FFFFFF" opacity="1" transform="rotate(0.0 400.8 266.4)"/><ellipse cx="400.8" cy="215.8" rx="13.056" ry="48.959999999999994" fill="#FFFFFF" opacity="1" transform="rotate(30.0 400.8 266.4)"/><ellipse cx="400.8" cy="215.8" rx="13.056" ry="48.959999999999994" fill="#FFFFFF" opacity="1" transform="rotate(60.0 400.8 266.4)"/><ellipse cx="400.8" cy="215.8" rx="13.056" ry="48.959999999999994" fill="#FFFFFF" opacity="1" transform="rotate(90.0 400.8 266.4)"/><ellipse cx="400.8" cy="215.8" rx="13.056" ry="48.959999999999994" fill="#FFFFFF" opacity="1" transform="rotate(120.0 400.8 266.4)"/><ellipse cx="400.8" cy="215.8" rx="13.056" ry="48.959999999999994" fill="#FFFFFF" opacity="1" transform="rotate(150.0 400.8 266.4)"/><ellipse cx="400.8" cy="215.8" rx="13.056" ry="48.959999999999994" fill="#FFFFFF" opacity="1" transform="rotate(180.0 400.8 266.4)"/><ellipse cx="400.8" cy="215.8" rx="13.056" ry="48.959999999999994" fill="#FFFFFF" opacity="1" transform="rotate(210.0 400.8 266.4)"/><ellipse cx="400.8" cy="215.8" rx="13.056" ry="48.959999999999994" fill="#FFFFFF" opacity="1" transform="rotate(240.0 400.8 266.4)"/><ellipse cx="400.8" cy="215.8" rx="13.056" ry="48.959999999999994" fill="#FFFFFF" opacity="1" transform="rotate(270.0 400.8 266.4)"/><ellipse cx="400.8" cy="215.8" rx="13.056" ry="48.959999999999994" fill="#FFFFFF" opacity="1" transform="rotate(300.0 400.8 266.4)"/><ellipse cx="400.8" cy="215.8" rx="13.056" ry="48.959999999999994" fill="#FFFFFF" opacity="1" transform="rotate(330.0 400.8 266.4)"/>
      <ellipse cx="400.8" cy="215.8" rx="10.607999999999999" ry="44.88" fill="#c6b8dd" opacity="1" transform="rotate(0.0 400.8 266.4)"/><ellipse cx="400.8" cy="215.8" rx="10.607999999999999" ry="44.88" fill="#c6b8dd" opacity="1" transform="rotate(30.0 400.8 266.4)"/><ellipse cx="400.8" cy="215.8" rx="10.607999999999999" ry="44.88" fill="#c6b8dd" opacity="1" transform="rotate(60.0 400.8 266.4)"/><ellipse cx="400.8" cy="215.8" rx="10.607999999999999" ry="44.88" fill="#c6b8dd" opacity="1" transform="rotate(90.0 400.8 266.4)"/><ellipse cx="400.8" cy="215.8" rx="10.607999999999999" ry="44.88" fill="#c6b8dd" opacity="1" transform="rotate(120.0 400.8 266.4)"/><ellipse cx="400.8" cy="215.8" rx="10.607999999999999" ry="44.88" fill="#c6b8dd" opacity="1" transform="rotate(150.0 400.8 266.4)"/><ellipse cx="400.8" cy="215.8" rx="10.607999999999999" ry="44.88" fill="#c6b8dd" opacity="1" transform="rotate(180.0 400.8 266.4)"/><ellipse cx="400.8" cy="215.8" rx="10.607999999999999" ry="44.88" fill="#c6b8dd" opacity="1" transform="rotate(210.0 400.8 266.4)"/><ellipse cx="400.8" cy="215.8" rx="10.607999999999999" ry="44.88" fill="#c6b8dd" opacity="1" transform="rotate(240.0 400.8 266.4)"/><ellipse cx="400.8" cy="215.8" rx="10.607999999999999" ry="44.88" fill="#c6b8dd" opacity="1" transform="rotate(270.0 400.8 266.4)"/><ellipse cx="400.8" cy="215.8" rx="10.607999999999999" ry="44.88" fill="#c6b8dd" opacity="1" transform="rotate(300.0 400.8 266.4)"/><ellipse cx="400.8" cy="215.8" rx="10.607999999999999" ry="44.88" fill="#c6b8dd" opacity="1" transform="rotate(330.0 400.8 266.4)"/>
      <circle cx="400.8" cy="266.4" r="26.112" fill="#F3D98C"/>
      <circle cx="400.8" cy="266.4" r="16.32" fill="#E6B85C"/>
    </g><g>
      <path d="M215.04000000000002 372 Q204.96 291.36 252 298.08 Q299.03999999999996 291.36 288.96 372 Q252 392.15999999999997 215.04000000000002 372 Z" fill="#E8A7B8"/>
      <path d="M239.904 299.424 Q252 365.28 264.096 299.424" fill="#cc93a2" opacity="0.5"/>
      <ellipse cx="252" cy="331.67999999999995" rx="14.783999999999997" ry="33.599999999999994" fill="#ecb7c5" opacity="0.7"/>
    </g><g>
    <ellipse cx="348" cy="301.4" rx="22.848" ry="33.599999999999994" fill="#f3dc95" opacity="1" transform="rotate(0.0 348 338.4)"/><ellipse cx="348" cy="301.4" rx="22.848" ry="33.599999999999994" fill="#f3dc95" opacity="1" transform="rotate(60.0 348 338.4)"/><ellipse cx="348" cy="301.4" rx="22.848" ry="33.599999999999994" fill="#f3dc95" opacity="1" transform="rotate(120.0 348 338.4)"/><ellipse cx="348" cy="301.4" rx="22.848" ry="33.599999999999994" fill="#f3dc95" opacity="1" transform="rotate(180.0 348 338.4)"/><ellipse cx="348" cy="301.4" rx="22.848" ry="33.599999999999994" fill="#f3dc95" opacity="1" transform="rotate(240.0 348 338.4)"/><ellipse cx="348" cy="301.4" rx="22.848" ry="33.599999999999994" fill="#f3dc95" opacity="1" transform="rotate(300.0 348 338.4)"/>
    <ellipse cx="348" cy="311.5" rx="20.159999999999997" ry="28.223999999999993" fill="#F2D98C" opacity="1" transform="rotate(30.0 348 338.4)"/><ellipse cx="348" cy="311.5" rx="20.159999999999997" ry="28.223999999999993" fill="#F2D98C" opacity="1" transform="rotate(90.0 348 338.4)"/><ellipse cx="348" cy="311.5" rx="20.159999999999997" ry="28.223999999999993" fill="#F2D98C" opacity="1" transform="rotate(150.0 348 338.4)"/><ellipse cx="348" cy="311.5" rx="20.159999999999997" ry="28.223999999999993" fill="#F2D98C" opacity="1" transform="rotate(210.0 348 338.4)"/><ellipse cx="348" cy="311.5" rx="20.159999999999997" ry="28.223999999999993" fill="#F2D98C" opacity="1" transform="rotate(270.0 348 338.4)"/><ellipse cx="348" cy="311.5" rx="20.159999999999997" ry="28.223999999999993" fill="#F2D98C" opacity="1" transform="rotate(330.0 348 338.4)"/>
    <ellipse cx="348" cy="320.9" rx="16.127999999999997" ry="21.503999999999998" fill="#d5bf7b" opacity="1" transform="rotate(12.0 348 338.4)"/><ellipse cx="348" cy="320.9" rx="16.127999999999997" ry="21.503999999999998" fill="#d5bf7b" opacity="1" transform="rotate(84.0 348 338.4)"/><ellipse cx="348" cy="320.9" rx="16.127999999999997" ry="21.503999999999998" fill="#d5bf7b" opacity="1" transform="rotate(156.0 348 338.4)"/><ellipse cx="348" cy="320.9" rx="16.127999999999997" ry="21.503999999999998" fill="#d5bf7b" opacity="1" transform="rotate(228.0 348 338.4)"/><ellipse cx="348" cy="320.9" rx="16.127999999999997" ry="21.503999999999998" fill="#d5bf7b" opacity="1" transform="rotate(300.0 348 338.4)"/>
    <circle cx="348" cy="338.4" r="14.783999999999997" fill="#bda96d"/>
    <circle cx="348" cy="338.4" r="6.719999999999999" fill="#f6e4af" opacity="0.8"/>
  </g><circle cx="300" cy="426" r="18" fill="#b1bfa9"/></svg>