<svg xmlns="http://www.w3.org/2000/svg" width="600" height="600" viewBox="0 0 600 600"><defs><radialGradient id="g11" cx="50%" cy="38%" r="75%">
      <stop offset="0" stop-color="#fcf7e6"/>
      <stop offset="1" stop-color="#F1E4B8"/>
    </radialGradient></defs>
    <rect width="600" height="600" fill="url(#g11)"/>
    <circle cx="108" cy="120" r="78" fill="#FFFFFF" opacity="0.12"/>
    <circle cx="504" cy="420" r="96" fill="#FFFFFF" opacity="0.1"/><g transform="rotate(-40 190.8 378)">
    <ellipse cx="190.8" cy="292.2" rx="48.04800000000001" ry="85.80000000000001" fill="#B7C6AE"/>
    <line x1="190.8" y1="378" x2="190.8" y2="206.39999999999998" stroke="#96a28f" stroke-width="6.864000000000001"/>
  </g><g transform="rotate(40 409.2 378)">
    <ellipse cx="409.2" cy="292.2" rx="48.04800000000001" ry="85.80000000000001" fill="#A8B89F"/>
    <line x1="409.2" y1="378" x2="409.2" y2="206.39999999999998" stroke="#8a9782" stroke-width="6.864000000000001"/>
  </g><g>
    <ellipse cx="300" cy="214.2" rx="53.040000000000006" ry="78" fill="#f3dc95" opacity="1" transform="rotate(0.0 300 300)"/><ellipse cx="300" cy="214.2" rx="53.040000000000006" ry="78" fill="#f3dc95" opacity="1" transform="rotate(60.0 300 300)"/><ellipse cx="300" cy="214.2" rx="53.040000000000006" ry="78" fill="#f3dc95" opacity="1" transform="rotate(120.0 300 300)"/><ellipse cx="300" cy="214.2" rx="53.040000000000006" ry="78" fill="#f3dc95" opacity="1" transform="rotate(180.0 300 300)"/><ellipse cx="300" cy="214.2" rx="53.040000000000006" ry="78" fill="#f3dc95" opacity="1" transform="rotate(240.0 300 300)"/><ellipse cx="300" cy="214.2" rx="53.040000000000006" ry="78" fill="#f3dc95" opacity="1" transform="rotate(300.0 300 300)"/>
    <ellipse cx="300" cy="237.6" rx="46.8" ry="65.52" fill="#F2D98C" opacity="1" transform="rotate(30.0 300 300)"/><ellipse cx="300" cy="237.6" rx="46.8" ry="65.52" fill="#F2D98C" opacity="1" transform="rotate(90.0 300 300)"/><ellipse cx="300" cy="237.6" rx="46.8" ry="65.52" fill="#F2D98C" opacity="1" transform="rotate(150.0 300 300)"/><ellipse cx="300" cy="237.6" rx="46.8" ry="65.52" fill="#F2D98C" opacity="1" transform="rotate(210.0 300 300)"/><ellipse cx="300" cy="237.6" rx="46.8" ry="65.52" fill="#F2D98C" opacity="1" transform="rotate(270.0 300 300)"/><ellipse cx="300" cy="237.6" rx="46.8" ry="65.52" fill="#F2D98C" opacity="1" transform="rotate(330.0 300 300)"/>
    <ellipse cx="300" cy="259.4" rx="37.44" ry="49.92" fill="#d5bf7b" opacity="1" transform="rotate(12.0 300 300)"/><ellipse cx="300" cy="259.4" rx="37.44" ry="49.92" fill="#d5bf7b" opacity="1" transform="rotate(84.0 300 300)"/><ellipse cx="300" cy="259.4" rx="37.44" ry="49.92" fill="#d5bf7b" opacity="1" transform="rotate(156.0 300 300)"/><ellipse cx="300" cy="259.4" rx="37.44" ry="49.92" fill="#d5bf7b" opacity="1" transform="rotate(228.0 300 300)"/><ellipse cx="300" cy="259.4" rx="37.44" ry="49.92" fill="#d5bf7b" opacity="1" transform="rotate(300.0 300 300)"/>
    <circle cx="300" cy="300" r="34.32" fill="#bda96d"/>
    <circle cx="300" cy="300" r="15.600000000000001" fill="#f6e4af" opacity="0.8"/>
  </g><g>
      <ellipse cx="151.8" cy="278.0" rx="13.728000000000002" ry="51.480000000000004" fill="#FFFFFF" opacity="1" transform="rotate(0.0 151.8 331.2)"/><ellipse cx="151.8" cy="278.0" rx="13.728000000000002" ry="51.480000000000004" fill="#FFFFFF" opacity="1" transform="rotate(30.0 151.8 331.2)"/><ellipse cx="151.8" cy="278.0" rx="13.728000000000002" ry="51.480000000000004" fill="#FFFFFF" opacity="1" transform="rotate(60.0 151.8 331.2)"/><ellipse cx="151.8" cy="278.0" rx="13.728000000000002" ry="51.480000000000004" fill="#FFFFFF" opacity="1" transform="rotate(90.0 151.8 331.2)"/><ellipse cx="151.8" cy="278.0" rx="13.728000000000002" ry="51.480000000000004" fill="#FFFFFF" opacity="1" transform="rotate(120.0 151.8 331.2)"/><ellipse cx="151.8" cy="278.0" rx="13.728000000000002" ry="51.480000000000004" fill="#FFFFFF" opacity="1" transform="rotate(150.0 151.8 331.2)"/><ellipse cx="151.8" cy="278.0" rx="13.728000000000002" ry="51.480000000000004" fill="#FFFFFF" opacity="1" transform="rotate(180.0 151.8 331.2)"/><ellipse cx="151.8" cy="278.0" rx="13.728000000000002" ry="51.480000000000004" fill="#FFFFFF" opacity="1" transform="rotate(210.0 151.8 331.2)"/><ellipse cx="151.8" cy="278.0" rx="13.728000000000002" ry="51.480000000000004" fill="#FFFFFF" opacity="1" transform="rotate(240.0 151.8 331.2)"/><ellipse cx="151.8" cy="278.0" rx="13.728000000000002" ry="51.480000000000004" fill="#FFFFFF" opacity="1" transform="rotate(270.0 151.8 331.2)"/><ellipse cx="151.8" cy="278.0" rx="13.728000000000002" ry="51.480000000000004" fill="#FFFFFF" opacity="1" transform="rotate(300.0 151.8 331.2)"/><ellipse cx="151.8" cy="278.0" rx="13.728000000000002" ry="51.480000000000004" fill="#FFFFFF" opacity="1" transform="rotate(330.0 151.8 331.2)"/>
      <ellipse cx="151.8" cy="278.0" rx="11.154000000000002" ry="47.19000000000001" fill="#f9edc5" opacity="1" transform="rotate(0.0 151.8 331.2)"/><ellipse cx="151.8" cy="278.0" rx="11.154000000000002" ry="47.19000000000001" fill="#f9edc5" opacity="1" transform="rotate(30.0 151.8 331.2)"/><ellipse cx="151.8" cy="278.0" rx="11.154000000000002" ry="47.19000000000001" fill="#f9edc5" opacity="1" transform="rotate(60.0 151.8 331.2)"/><ellipse cx="151.8" cy="278.0" rx="11.154000000000002" ry="47.19000000000001" fill="#f9edc5" opacity="1" transform="rotate(90.0 151.8 331.2)"/><ellipse cx="151.8" cy="278.0" rx="11.154000000000002" ry="47.19000000000001" fill="#f9edc5" opacity="1" transform="rotate(120.0 151.8 331.2)"/><ellipse cx="151.8" cy="278.0" rx="11.154000000000002" ry="47.19000000000001" fill="#f9edc5" opacity="1" transform="rotate(150.0 151.8 331.2)"/><ellipse cx="151.8" cy="278.0" rx="11.154000000000002" ry="47.19000000000001" fill="#f9edc5" opacity="1" transform="rotate(180.0 151.8 331.2)"/><ellipse cx="151.8" cy="278.0" rx="11.154000000000002" ry="47.19000000000001" fill="#f9edc5" opacity="1" transform="rotate(210.0 151.8 331.2)"/><ellipse cx="151.8" cy="278.0" rx="11.154000000000002" ry="47.19000000000001" fill="#f9edc5" opacity="1" transform="rotate(240.0 151.8 331.2)"/><ellipse cx="151.8" cy="278.0" rx="11.154000000000002" ry="47.19000000000001" fill="#f9edc5" opacity="1" transform="rotate(270.0 151.8 331.2)"/><ellipse cx="151.8" cy="278.0" rx="11.154000000000002" ry="47.19000000000001" fill="#f9edc5" opacity="1" transform="rotate(300.0 151.8 331.2)"/><ellipse cx="151.8" cy="278.0" rx="11.154000000000002" ry="47.19000000000001" fill="#f9edc5" opacity="1" transform="rotate(330.0 151.8 331.2)"/>
      <circle cx="151.8" cy="331.2" r="27.456000000000003" fill="#F3D98C"/>
      <circle cx="151.8" cy="331.2" r="17.160000000000004" fill="#E6B85C"/>
    </g><g>
      <path d="M401.01 374.1 Q388.14 271.14 448.2 279.71999999999997 Q508.26 271.14 495.39 374.1 Q448.2 399.84000000000003 401.01 374.1 Z" fill="#E8C45C"/>
      <path d="M432.756 281.436 Q448.2 365.52 463.644 281.436" fill="#ccac51" opacity="0.5"/>
      <ellipse cx="448.2" cy="322.62" rx="18.876" ry="42.900000000000006" fill="#eccf79" opacity="0.7"/>
    </g></svg>