<svg xmlns="http://www.w3.org/2000/svg" width="1600" height="1000" viewBox="0 0 1600 1000"><defs><radialGradient id="g16" cx="50%" cy="38%" r="75%">
      <stop offset="0" stop-color="#fcefef"/>
      <stop offset="1" stop-color="#F0CFCF"/>
    </radialGradient></defs>
    <rect width="1600" height="1000" fill="url(#g16)"/>
    <circle cx="288" cy="200" r="208" fill="#FFFFFF" opacity="0.12"/>
    <circle cx="1344" cy="700" r="256" fill="#FFFFFF" opacity="0.1"/><path d="M400 500 L1200 500 L944 920 L656 920 Z" fill="#f2d5d5"/><path d="M800 500 L656 920" stroke="#dac0c0" stroke-width="9.6" opacity="0.6"/><path d="M800 500 L944 920" stroke="#dac0c0" stroke-width="9.6" opacity="0.6"/><g transform="rotate(-35 624 516)">
    <ellipse cx="624" cy="412" rx="58.24000000000001" ry="104" fill="#A8B89F"/>
    <line x1="624" y1="516" x2="624" y2="308" stroke="#8a9782" stroke-width="8.32"/>
  </g><g transform="rotate(35 976 516)">
    <ellipse cx="976" cy="412" rx="58.24000000000001" ry="104" fill="#C7D2C0"/>
    <line x1="976" y1="516" x2="976" y2="308" stroke="#a3ac9d" stroke-width="8.32"/>
  </g><g transform="rotate(0 800 564)">
    <ellipse cx="800" cy="468" rx="53.760000000000005" ry="96" fill="#B7C6AE"/>
    <line x1="800" y1="564" x2="800" y2="372" stroke="#96a28f" stroke-width="7.68"/>
  </g><g>
    <ellipse cx="800" cy="295.6" rx="57.120000000000005" ry="84" fill="#eaaebe" opacity="1" transform="rotate(0.0 800 388)"/><ellipse cx="800" cy="295.6" rx="57.120000000000005" ry="84" fill="#eaaebe" opacity="1" transform="rotate(60.0 800 388)"/><ellipse cx="800" cy="295.6" rx="57.120000000000005" ry="84" fill="#eaaebe" opacity="1" transform="rotate(120.0 800 388)"/><ellipse cx="800" cy="295.6" rx="57.120000000000005" ry="84" fill="#eaaebe" opacity="1" transform="rotate(180.0 800 388)"/><ellipse cx="800" cy="295.6" rx="57.120000000000005" ry="84" fill="#eaaebe" opacity="1" transform="rotate(240.0 800 388)"/><ellipse cx="800" cy="295.6" rx="57.120000000000005" ry="84" fill="#eaaebe" opacity="1" transform="rotate(300.0 800 388)"/>
    <ellipse cx="800" cy="320.8" rx="50.4" ry="70.56" fill="#E8A7B8" opacity="1" transform="rotate(30.0 800 388)"/><ellipse cx="800" cy="320.8" rx="50.4" ry="70.56" fill="#E8A7B8" opacity="1" transform="rotate(90.0 800 388)"/><ellipse cx="800" cy="320.8" rx="50.4" ry="70.56" fill="#E8A7B8" opacity="1" transform="rotate(150.0 800 388)"/><ellipse cx="800" cy="320.8" rx="50.4" ry="70.56" fill="#E8A7B8" opacity="1" transform="rotate(210.0 800 388)"/><ellipse cx="800" cy="320.8" rx="50.4" ry="70.56" fill="#E8A7B8" opacity="1" transform="rotate(270.0 800 388)"/><ellipse cx="800" cy="320.8" rx="50.4" ry="70.56" fill="#E8A7B8" opacity="1" transform="rotate(330.0 800 388)"/>
    <ellipse cx="800" cy="344.3" rx="40.32" ry="53.76" fill="#cc93a2" opacity="1" transform="rotate(12.0 800 388)"/><ellipse cx="800" cy="344.3" rx="40.32" ry="53.76" fill="#cc93a2" opacity="1" transform="rotate(84.0 800 388)"/><ellipse cx="800" cy="344.3" rx="40.32" ry="53.76" fill="#cc93a2" opacity="1" transform="rotate(156.0 800 388)"/><ellipse cx="800" cy="344.3" rx="40.32" ry="53.76" fill="#cc93a2" opacity="1" transform="rotate(228.0 800 388)"/><ellipse cx="800" cy="344.3" rx="40.32" ry="53.76" fill="#cc93a2" opacity="1" transform="rotate(300.0 800 388)"/>
    <circle cx="800" cy="388" r="36.96" fill="#b58290"/>
    <circle cx="800" cy="388" r="16.8" fill="#efc1cd" opacity="0.8"/>
  </g><g>
    <ellipse cx="632" cy="369.2" rx="46.24" ry="68" fill="#f3dc95" opacity="1" transform="rotate(0.0 632 444)"/><ellipse cx="632" cy="369.2" rx="46.24" ry="68" fill="#f3dc95" opacity="1" transform="rotate(60.0 632 444)"/><ellipse cx="632" cy="369.2" rx="46.24" ry="68" fill="#f3dc95" opacity="1" transform="rotate(120.0 632 444)"/><ellipse cx="632" cy="369.2" rx="46.24" ry="68" fill="#f3dc95" opacity="1" transform="rotate(180.0 632 444)"/><ellipse cx="632" cy="369.2" rx="46.24" ry="68" fill="#f3dc95" opacity="1" transform="rotate(240.0 632 444)"/><ellipse cx="632" cy="369.2" rx="46.24" ry="68" fill="#f3dc95" opacity="1" transform="rotate(300.0 632 444)"/>
    <ellipse cx="632" cy="389.6" rx="40.8" ry="57.12" fill="#F2D98C" opacity="1" transform="rotate(30.0 632 444)"/><ellipse cx="632" cy="389.6" rx="40.8" ry="57.12" fill="#F2D98C" opacity="1" transform="rotate(90.0 632 444)"/><ellipse cx="632" cy="389.6" rx="40.8" ry="57.12" fill="#F2D98C" opacity="1" transform="rotate(150.0 632 444)"/><ellipse cx="632" cy="389.6" rx="40.8" ry="57.12" fill="#F2D98C" opacity="1" transform="rotate(210.0 632 444)"/><ellipse cx="632" cy="389.6" rx="40.8" ry="57.12" fill="#F2D98C" opacity="1" transform="rotate(270.0 632 444)"/><ellipse cx="632" cy="389.6" rx="40.8" ry="57.12" fill="#F2D98C" opacity="1" transform="rotate(330.0 632 444)"/>
    <ellipse cx="632" cy="408.6" rx="32.64" ry="43.52" fill="#d5bf7b" opacity="1" transform="rotate(12.0 632 444)"/><ellipse cx="632" cy="408.6" rx="32.64" ry="43.52" fill="#d5bf7b" opacity="1" transform="rotate(84.0 632 444)"/><ellipse cx="632" cy="408.6" rx="32.64" ry="43.52" fill="#d5bf7b" opacity="1" transform="rotate(156.0 632 444)"/><ellipse cx="632" cy="408.6" rx="32.64" ry="43.52" fill="#d5bf7b" opacity="1" transform="rotate(228.0 632 444)"/><ellipse cx="632" cy="408.6" rx="32.64" ry="43.52" fill="#d5bf7b" opacity="1" transform="rotate(300.0 632 444)"/>
    <circle cx="632" cy="444" r="29.92" fill="#bda96d"/>
    <circle cx="632" cy="444" r="13.600000000000001" fill="#f6e4af" opacity="0.8"/>
  </g><g>
      <ellipse cx="968" cy="359.7" rx="21.76" ry="81.6" fill="#FFFFFF" opacity="1" transform="rotate(0.0 968 444)"/><ellipse cx="968" cy="359.7" rx="21.76" ry="81.6" fill="#FFFFFF" opacity="1" transform="rotate(30.0 968 444)"/><ellipse cx="968" cy="359.7" rx="21.76" ry="81.6" fill="#FFFFFF" opacity="1" transform="rotate(60.0 968 444)"/><ellipse cx="968" cy="359.7" rx="21.76" ry="81.6" fill="#FFFFFF" opacity="1" transform="rotate(90.0 968 444)"/><ellipse cx="968" cy="359.7" rx="21.76" ry="81.6" fill="#FFFFFF" opacity="1" transform="rotate(120.0 968 444)"/><ellipse cx="968" cy="359.7" rx="21.76" ry="81.6" fill="#FFFFFF" opacity="1" transform="rotate(150.0 968 444)"/><ellipse cx="968" cy="359.7" rx="21.76" ry="81.6" fill="#FFFFFF" opacity="1" transform="rotate(180.0 968 444)"/><ellipse cx="968" cy="359.7" rx="21.76" ry="81.6" fill="#FFFFFF" opacity="1" transform="rotate(210.0 968 444)"/><ellipse cx="968" cy="359.7" rx="21.76" ry="81.6" fill="#FFFFFF" opacity="1" transform="rotate(240.0 968 444)"/><ellipse cx="968" cy="359.7" rx="21.76" ry="81.6" fill="#FFFFFF" opacity="1" transform="rotate(270.0 968 444)"/><ellipse cx="968" cy="359.7" rx="21.76" ry="81.6" fill="#FFFFFF" opacity="1" transform="rotate(300.0 968 444)"/><ellipse cx="968" cy="359.7" rx="21.76" ry="81.6" fill="#FFFFFF" opacity="1" transform="rotate(330.0 968 444)"/>
      <ellipse cx="968" cy="359.7" rx="17.68" ry="74.80000000000001" fill="#c6b8dd" opacity="1" transform="rotate(0.0 968 444)"/><ellipse cx="968" cy="359.7" rx="17.68" ry="74.80000000000001" fill="#c6b8dd" opacity="1" transform="rotate(30.0 968 444)"/><ellipse cx="968" cy="359.7" rx="17.68" ry="74.80000000000001" fill="#c6b8dd" opacity="1" transform="rotate(60.0 968 444)"/><ellipse cx="968" cy="359.7" rx="17.68" ry="74.80000000000001" fill="#c6b8dd" opacity="1" transform="rotate(90.0 968 444)"/><ellipse cx="968" cy="359.7" rx="17.68" ry="74.80000000000001" fill="#c6b8dd" opacity="1" transform="rotate(120.0 968 444)"/><ellipse cx="968" cy="359.7" rx="17.68" ry="74.80000000000001" fill="#c6b8dd" opacity="1" transform="rotate(150.0 968 444)"/><ellipse cx="968" cy="359.7" rx="17.68" ry="74.80000000000001" fill="#c6b8dd" opacity="1" transform="rotate(180.0 968 444)"/><ellipse cx="968" cy="359.7" rx="17.68" ry="74.80000000000001" fill="#c6b8dd" opacity="1" transform="rotate(210.0 968 444)"/><ellipse cx="968" cy="359.7" rx="17.68" ry="74.80000000000001" fill="#c6b8dd" opacity="1" transform="rotate(240.0 968 444)"/><ellipse cx="968" cy="359.7" rx="17.68" ry="74.80000000000001" fill="#c6b8dd" opacity="1" transform="rotate(270.0 968 444)"/><ellipse cx="968" cy="359.7" rx="17.68" ry="74.80000000000001" fill="#c6b8dd" opacity="1" transform="rotate(300.0 968 444)"/><ellipse cx="968" cy="359.7" rx="17.68" ry="74.80000000000001" fill="#c6b8dd" opacity="1" transform="rotate(330.0 968 444)"/>
      <circle cx="968" cy="444" r="43.52" fill="#F3D98C"/>
      <circle cx="968" cy="444" r="27.200000000000003" fill="#E6B85C"/>
    </g><g>
      <path d="M658.4 620 Q641.6 485.6 720 496.8 Q798.4 485.6 781.6 620 Q720 653.6 658.4 620 Z" fill="#E8A7B8"/>
      <path d="M699.84 499.04 Q720 608.8 740.16 499.04" fill="#cc93a2" opacity="0.5"/>
      <ellipse cx="720" cy="552.8" rx="24.64" ry="56" fill="#ecb7c5" opacity="0.7"/>
    </g><g>
    <ellipse cx="880" cy="502.4" rx="38.080000000000005" ry="56" fill="#f3dc95" opacity="1" transform="rotate(0.0 880 564)"/><ellipse cx="880" cy="502.4" rx="38.080000000000005" ry="56" fill="#f3dc95" opacity="1" transform="rotate(60.0 880 564)"/><ellipse cx="880" cy="502.4" rx="38.080000000000005" ry="56" fill="#f3dc95" opacity="1" transform="rotate(120.0 880 564)"/><ellipse cx="880" cy="502.4" rx="38.080000000000005" ry="56" fill="#f3dc95" opacity="1" transform="rotate(180.0 880 564)"/><ellipse cx="880" cy="502.4" rx="38.080000000000005" ry="56" fill="#f3dc95" opacity="1" transform="rotate(240.0 880 564)"/><ellipse cx="880" cy="502.4" rx="38.080000000000005" ry="56" fill="#f3dc95" opacity="1" transform="rotate(300.0 880 564)"/>
    <ellipse cx="880" cy="519.2" rx="33.6" ry="47.04" fill="#F2D98C" opacity="1" transform="rotate(30.0 880 564)"/><ellipse cx="880" cy="519.2" rx="33.6" ry="47.04" fill="#F2D98C" opacity="1" transform="rotate(90.0 880 564)"/><ellipse cx="880" cy="519.2" rx="33.6" ry="47.04" fill="#F2D98C" opacity="1" transform="rotate(150.0 880 564)"/><ellipse cx="880" cy="519.2" rx="33.6" ry="47.04" fill="#F2D98C" opacity="1" transform="rotate(210.0 880 564)"/><ellipse cx="880" cy="519.2" rx="33.6" ry="47.04" fill="#F2D98C" opacity="1" transform="rotate(270.0 880 564)"/><ellipse cx="880" cy="519.2" rx="33.6" ry="47.04" fill="#F2D98C" opacity="1" transform="rotate(330.0 880 564)"/>
    <ellipse cx="880" cy="534.9" rx="26.88" ry="35.84" fill="#d5bf7b" opacity="1" transform="rotate(12.0 880 564)"/><ellipse cx="880" cy="534.9" rx="26.88" ry="35.84" fill="#d5bf7b" opacity="1" transform="rotate(84.0 880 564)"/><ellipse cx="880" cy="534.9" rx="26.88" ry="35.84" fill="#d5bf7b" opacity="1" transform="rotate(156.0 880 564)"/><ellipse cx="880" cy="534.9" rx="26.88" ry="35.84" fill="#d5bf7b" opacity="1" transform="rotate(228.0 880 564)"/><ellipse cx="880" cy="534.9" rx="26.88" ry="35.84" fill="#d5bf7b" opacity="1" transform="rotate(300.0 880 564)"/>
    <circle cx="880" cy="564" r="24.64" fill="#bda96d"/>
    <circle cx="880" cy="564" r="11.200000000000001" fill="#f6e4af" opacity="0.8"/>
  </g><circle cx="800" cy="710" r="48" fill="#ddb0b0"/></svg>