<svg xmlns="http://www.w3.org/2000/svg" width="800" height="600" viewBox="0 0 800 600"><defs><radialGradient id="g20" cx="50%" cy="38%" r="75%">
      <stop offset="0" stop-color="#fdf0e8"/>
      <stop offset="1" stop-color="#F6D5C2"/>
    </radialGradient></defs>
    <rect width="800" height="600" fill="url(#g20)"/>
    <circle cx="144" cy="120" r="104" fill="#FFFFFF" opacity="0.12"/>
    <circle cx="672" cy="420" r="128" fill="#FFFFFF" opacity="0.1"/><path d="M200 300 L600 300 L472 552 L328 552 Z" fill="#f7dac9"/><path d="M400 300 L328 552" stroke="#dec4b5" stroke-width="4.8" opacity="0.6"/><path d="M400 300 L472 552" stroke="#dec4b5" stroke-width="4.8" opacity="0.6"/><g transform="rotate(-35 294.4 309.6)">
    <ellipse cx="294.4" cy="247.20000000000002" rx="34.94400000000001" ry="62.400000000000006" fill="#A8B89F"/>
    <line x1="294.4" y1="309.6" x2="294.4" y2="184.8" stroke="#8a9782" stroke-width="4.992000000000001"/>
  </g><g transform="rotate(35 505.6 309.6)">
    <ellipse cx="505.6" cy="247.20000000000002" rx="34.94400000000001" ry="62.400000000000006" fill="#C7D2C0"/>
    <line x1="505.6" y1="309.6" x2="505.6" y2="184.8" stroke="#a3ac9d" stroke-width="4.992000000000001"/>
  </g><g transform="rotate(0 400 338.4)">
    <ellipse cx="400" cy="280.79999999999995" rx="32.256" ry="57.599999999999994" fill="#B7C6AE"/>
    <line x1="400" y1="338.4" x2="400" y2="223.2" stroke="#96a28f" stroke-width="4.608"/>
  </g><g>
    <ellipse cx="400" cy="177.4" rx="34.272000000000006" ry="50.400000000000006" fill="#f1b095" opacity="1" transform="rotate(0.0 400 232.8)"/><ellipse cx="400" cy="177.4" rx="34.272000000000006" ry="50.400000000000006" fill="#f1b095" opacity="1" transform="rotate(60.0 400 232.8)"/><ellipse cx="400" cy="177.4" rx="34.272000000000006" ry="50.400000000000006" fill="#f1b095" opacity="1" transform="rotate(120.0 400 232.8)"/><ellipse cx="400" cy="177.4" rx="34.272000000000006" ry="50.400000000000006" fill="#f1b095" opacity="1" transform="rotate(180.0 400 232.8)"/><ellipse cx="400" cy="177.4" rx="34.272000000000006" ry="50.400000000000006" fill="#f1b095" opacity="1" transform="rotate(240.0 400 232.8)"/><ellipse cx="400" cy="177.4" rx="34.272000000000006" ry="50.400000000000006" fill="#f1b095" opacity="1" transform="rotate(300.0 400 232.8)"/>
    <ellipse cx="400" cy="192.5" rx="30.240000000000002" ry="42.336000000000006" fill="#F0A98C" opacity="1" transform="rotate(30.0 400 232.8)"/><ellipse cx="400" cy="192.5" rx="30.240000000000002" ry="42.336000000000006" fill="#F0A98C" opacity="1" transform="rotate(90.0 400 232.8)"/><ellipse cx="400" cy="192.5" rx="30.240000000000002" ry="42.336000000000006" fill="#F0A98C" opacity="1" transform="rotate(150.0 400 232.8)"/><ellipse cx="400" cy="192.5" rx="30.240000000000002" ry="42.336000000000006" fill="#F0A98C" opacity="1" transform="rotate(210.0 400 232.8)"/><ellipse cx="400" cy="192.5" rx="30.240000000000002" ry="42.336000000000006" fill="#F0A98C" opacity="1" transform="rotate(270.0 400 232.8)"/><ellipse cx="400" cy="192.5" rx="30.240000000000002" ry="42.336000000000006" fill="#F0A98C" opacity="1" transform="rotate(330.0 400 232.8)"/>
    <ellipse cx="400" cy="206.6" rx="24.192" ry="32.25600000000001" fill="#d3957b" opacity="1" transform="rotate(12.0 400 232.8)"/><ellipse cx="400" cy="206.6" rx="24.192" ry="32.25600000000001" fill="#d3957b" opacity="1" transform="rotate(84.0 400 232.8)"/><ellipse cx="400" cy="206.6" rx="24.192" ry="32.25600000000001" fill="#d3957b" opacity="1" transform="rotate(156.0 400 232.8)"/><ellipse cx="400" cy="206.6" rx="24.192" ry="32.25600000000001" fill="#d3957b" opacity="1" transform="rotate(228.0 400 232.8)"/><ellipse cx="400" cy="206.6" rx="24.192" ry="32.25600000000001" fill="#d3957b" opacity="1" transform="rotate(300.0 400 232.8)"/>
    <circle cx="400" cy="232.8" r="22.176000000000002" fill="#bb846d"/>
    <circle cx="400" cy="232.8" r="10.080000000000002" fill="#f5c3af" opacity="0.8"/>
  </g><g>
    <ellipse cx="299.2" cy="221.5" rx="27.744" ry="40.8" fill="#f7cdb6" opacity="1" transform="rotate(0.0 299.2 266.4)"/><ellipse cx="299.2" cy="221.5" rx="27.744" ry="40.8" fill="#f7cdb6" opacity="1" transform="rotate(60.0 299.2 266.4)"/><ellipse cx="299.2" cy="221.5" rx="27.744" ry="40.8" fill="#f7cdb6" opacity="1" transform="rotate(120.0 299.2 266.4)"/><ellipse cx="299.2" cy="221.5" rx="27.744" ry="40.8" fill="#f7cdb6" opacity="1" transform="rotate(180.0 299.2 266.4)"/><ellipse cx="299.2" cy="221.5" rx="27.744" ry="40.8" fill="#f7cdb6" opacity="1" transform="rotate(240.0 299.2 266.4)"/><ellipse cx="299.2" cy="221.5" rx="27.744" ry="40.8" fill="#f7cdb6" opacity="1" transform="rotate(300.0 299.2 266.4)"/>
    <ellipse cx="299.2" cy="233.8" rx="24.479999999999997" ry="34.272" fill="#F6C9B0" opacity="1" transform="rotate(30.0 299.2 266.4)"/><ellipse cx="299.2" cy="233.8" rx="24.479999999999997" ry="34.272" fill="#F6C9B0" opacity="1" transform="rotate(90.0 299.2 266.4)"/><ellipse cx="299.2" cy="233.8" rx="24.479999999999997" ry="34.272" fill="#F6C9B0" opacity="1" transform="rotate(150.0 299.2 266.4)"/><ellipse cx="299.2" cy="233.8" rx="24.479999999999997" ry="34.272" fill="#F6C9B0" opacity="1" transform="rotate(210.0 299.2 266.4)"/><ellipse cx="299.2" cy="233.8" rx="24.479999999999997" ry="34.272" fill="#F6C9B0" opacity="1" transform="rotate(270.0 299.2 266.4)"/><ellipse cx="299.2" cy="233.8" rx="24.479999999999997" ry="34.272" fill="#F6C9B0" opacity="1" transform="rotate(330.0 299.2 266.4)"/>
    <ellipse cx="299.2" cy="245.2" rx="19.584" ry="26.112" fill="#d8b19b" opacity="1" transform="rotate(12.0 299.2 266.4)"/><ellipse cx="299.2" cy="245.2" rx="19.584" ry="26.112" fill="#d8b19b" opacity="1" transform="rotate(84.0 299.2 266.4)"/><ellipse cx="299.2" cy="245.2" rx="19.584" ry="26.112" fill="#d8b19b" opacity="1" transform="rotate(156.0 299.2 266.4)"/><ellipse cx="299.2" cy="245.2" rx="19.584" ry="26.112" fill="#d8b19b" opacity="1" transform="rotate(228.0 299.2 266.4)"/><ellipse cx="299.2" cy="245.2" rx="19.584" ry="26.112" fill="#d8b19b" opacity="1" transform="rotate(300.0 299.2 266.4)"/>
    <circle cx="299.2" cy="266.4" r="17.951999999999998" fill="#c09d89"/>
    <circle cx="299.2" cy="266.4" r="8.16" fill="#f9d9c8" opacity="0.8"/>
  </g><g>
      <ellipse cx="500.8" cy="215.8" rx="13.056" ry="48.959999999999994" fill="#FFFFFF" opacity="1" transform="rotate(0.0 500.8 266.4)"/><ellipse cx="500.8" cy="215.8" rx="13.056" ry="48.959999999999994" fill="#FFFFFF" opacity="1" transform="rotate(30.0 500.8 266.4)"/><ellipse cx="500.8" cy="215.8" rx="13.056" ry="48.959999999999994" fill="#FFFFFF" opacity="1" transform="rotate(60.0 500.8 266.4)"/><ellipse cx="500.8" cy="215.8" rx="13.056" ry="48.959999999999994" fill="#FFFFFF" opacity="1" transform="rotate(90.0 500.8 266.4)"/><ellipse cx="500.8" cy="215.8" rx="13.056" ry="48.959999999999994" fill="#FFFFFF" opacity="1" transform="rotate(120.0 500.8 266.4)"/><ellipse cx="500.8" cy="215.8" rx="13.056" ry="48.959999999999994" fill="#FFFFFF" opacity="1" transform="rotate(150.0 500.8 266.4)"/><ellipse cx="500.8" cy="215.8" rx="13.056" ry="48.959999999999994" fill="#FFFFFF" opacity="1" transform="rotate(180.0 500.8 266.4)"/><ellipse cx="500.8" cy="215.8" rx="13.056" ry="48.959999999999994" fill="#FFFFFF" opacity="1" transform="rotate(210.0 500.8 266.4)"/><ellipse cx="500.8" cy="215.8" rx="13.056" ry="48.959999999999994" fill="#FFFFFF" opacity="1" transform="rotate(240.0 500.8 266.4)"/><ellipse cx="500.8" cy="215.8" rx="13.056" ry="48.959999999999994" fill="#FFFFFF" opacity="1" transform="rotate(270.0 500.8 266.4)"/><ellipse cx="500.8" cy="215.8" rx="13.056" ry="48.959999999999994" fill="#FFFFFF" opacity="1" transform="rotate(300.0 500.8 266.4)"/><ellipse cx="500.8" cy="215.8" rx="13.056" ry="48.959999999999994" fill="#FFFFFF" opacity="1" transform="rotate(330.0 500.8 266.4)"/>
      <ellipse cx="500.8" cy="215.8" rx="10.607999999999999" ry="44.88" fill="#ecac92" opacity="1" transform="rotate(0.0 500.8 266.4)"/><ellipse cx="500.8" cy="215.8" rx="10.607999999999999" ry="44.88" fill="#ecac92" opacity="1" transform="rotate(30.0 500.8 266.4)"/><ellipse cx="500.8" cy="215.8" rx="10.607999999999999" ry="44.88" fill="#ecac92" opacity="1" transform="rotate(60.0 500.8 266.4)"/><ellipse cx="500.8" cy="215.8" rx="10.607999999999999" ry="44.88" fill="#ecac92" opacity="1" transform="rotate(90.0 500.8 266.4)"/><ellipse cx="500.8" cy="215.8" rx="10.607999999999999" ry="44.88" fill="#ecac92" opacity="1" transform="rotate(120.0 500.8 266.4)"/><ellipse cx="500.8" cy="215.8" rx="10.607999999999999" ry="44.88" fill="#ecac92" opacity="1" transform="rotate(150.0 500.8 266.4)"/><ellipse cx="500.8" cy="215.8" rx="10.607999999999999" ry="44.88" fill="#ecac92" opacity="1" transform="rotate(180.0 500.8 266.4)"/><ellipse cx="500.8" cy="215.8" rx="10.607999999999999" ry="44.88" fill="#ecac92" opacity="1" transform="rotate(210.0 500.8 266.4)"/><ellipse cx="500.8" cy="215.8" rx="10.607999999999999" ry="44.88" fill="#ecac92" opacity="1" transform="rotate(240.0 500.8 266.4)"/><ellipse cx="500.8" cy="215.8" rx="10.607999999999999" ry="44.88" fill="#ecac92" opacity="1" transform="rotate(270.0 500.8 266.4)"/><ellipse cx="500.8" cy="215.8" rx="10.607999999999999" ry="44.88" fill="#ecac92" opacity="1" transform="rotate(300.0 500.8 266.4)"/><ellipse cx="500.8" cy="215.8" rx="10.607999999999999" ry="44.88" fill="#ecac92" opacity="1" transform="rotate(330.0 500.8 266.4)"/>
      <circle cx="500.8" cy="266.4" r="26.112" fill="#F3D98C"/>
      <circle cx="500.8" cy="266.4" r="16.32" fill="#E6B85C"/>
    </g><g>
      <path d="M315.04 372 Q304.96000000000004 291.36 352 298.08 Q399.03999999999996 291.36 388.96 372 Q352 392.15999999999997 315.04 372 Z" fill="#F0A98C"/>
      <path d="M339.904 299.424 Q352 365.28 364.096 299.424" fill="#d3957b" opacity="0.5"/>
      <ellipse cx="352" cy="331.67999999999995" rx="14.783999999999997" ry="33.599999999999994" fill="#f3b8a1" opacity="0.7"/>
    </g><g>
    <ellipse cx="448" cy="301.4" rx="22.848" ry="33.599999999999994" fill="#f7cdb6" opacity="1" transform="rotate(0.0 448 338.4)"/><ellipse cx="448" cy="301.4" rx="22.848" ry="33.599999999999994" fill="#f7cdb6" opacity="1" transform="rotate(60.0 448 338.4)"/><ellipse cx="448" cy="301.4" rx="22.848" ry="33.599999999999994" fill="#f7cdb6" opacity="1" transform="rotate(120.0 448 338.4)"/><ellipse cx="448" cy="301.4" rx="22.848" ry="33.599999999999994" fill="#f7cdb6" opacity="1" transform="rotate(180.0 448 338.4)"/><ellipse cx="448" cy="301.4" rx="22.848" ry="33.599999999999994" fill="#f7cdb6" opacity="1" transform="rotate(240.0 448 338.4)"/><ellipse cx="448" cy="301.4" rx="22.848" ry="33.599999999999994" fill="#f7cdb6" opacity="1" transform="rotate(300.0 448 338.4)"/>
    <ellipse cx="448" cy="311.5" rx="20.159999999999997" ry="28.223999999999993" fill="#F6C9B0" opacity="1" transform="rotate(30.0 448 338.4)"/><ellipse cx="448" cy="311.5" rx="20.159999999999997" ry="28.223999999999993" fill="#F6C9B0" opacity="1" transform="rotate(90.0 448 338.4)"/><ellipse cx="448" cy="311.5" rx="20.159999999999997" ry="28.223999999999993" fill="#F6C9B0" opacity="1" transform="rotate(150.0 448 338.4)"/><ellipse cx="448" cy="311.5" rx="20.159999999999997" ry="28.223999999999993" fill="#F6C9B0" opacity="1" transform="rotate(210.0 448 338.4)"/><ellipse cx="448" cy="311.5" rx="20.159999999999997" ry="28.223999999999993" fill="#F6C9B0" opacity="1" transform="rotate(270.0 448 338.4)"/><ellipse cx="448" cy="311.5" rx="20.159999999999997" ry="28.223999999999993" fill="#F6C9B0" opacity="1" transform="rotate(330.0 448 338.4)"/>
    <ellipse cx="448" cy="320.9" rx="16.127999999999997" ry="21.503999999999998" fill="#d8b19b" opacity="1" transform="rotate(12.0 448 338.4)"/><ellipse cx="448" cy="320.9" rx="16.127999999999997" ry="21.503999999999998" fill="#d8b19b" opacity="1" transform="rotate(84.0 448 338.4)"/><ellipse cx="448" cy="320.9" rx="16.127999999999997" ry="21.503999999999998" fill="#d8b19b" opacity="1" transform="rotate(156.0 448 338.4)"/><ellipse cx="448" cy="320.9" rx="16.127999999999997" ry="21.503999999999998" fill="#d8b19b" opacity="1" transform="rotate(228.0 448 338.4)"/><ellipse cx="448" cy="320.9" rx="16.127999999999997" ry="21.503999999999998" fill="#d8b19b" opacity="1" transform="rotate(300.0 448 338.4)"/>
    <circle cx="448" cy="338.4" r="14.783999999999997" fill="#c09d89"/>
    <circle cx="448" cy="338.4" r="6.719999999999999" fill="#f9d9c8" opacity="0.8"/>
  </g><circle cx="400" cy="426" r="24" fill="#eabb9e"/></svg>