<svg xmlns="http://www.w3.org/2000/svg" width="800" height="1000" viewBox="0 0 800 1000"><defs><radialGradient id="g6" cx="50%" cy="38%" r="75%">
      <stop offset="0" stop-color="#eff4ec"/>
      <stop offset="1" stop-color="#CFDcC8"/>
    </radialGradient></defs>
    <rect width="800" height="1000" fill="url(#g6)"/>
    <circle cx="144" cy="200" r="104" fill="#FFFFFF" opacity="0.12"/>
    <circle cx="672" cy="700" r="128" fill="#FFFFFF" opacity="0.1"/><line x1="400" y1="550" x2="400" y2="900" stroke="#97a68f" stroke-width="16"/><line x1="400" y1="880" x2="304" y2="950" stroke="#97a68f" stroke-width="14.399999999999999"/><line x1="400" y1="880" x2="496" y2="950" stroke="#97a68f" stroke-width="14.399999999999999"/><g>
    <ellipse cx="608" cy="298.0" rx="13.600000000000001" ry="20" fill="#eaaebe" opacity="1" transform="rotate(0.0 608 320)"/><ellipse cx="608" cy="298.0" rx="13.600000000000001" ry="20" fill="#eaaebe" opacity="1" transform="rotate(60.0 608 320)"/><ellipse cx="608" cy="298.0" rx="13.600000000000001" ry="20" fill="#eaaebe" opacity="1" transform="rotate(120.0 608 320)"/><ellipse cx="608" cy="298.0" rx="13.600000000000001" ry="20" fill="#eaaebe" opacity="1" transform="rotate(180.0 608 320)"/><ellipse cx="608" cy="298.0" rx="13.600000000000001" ry="20" fill="#eaaebe" opacity="1" transform="rotate(240.0 608 320)"/><ellipse cx="608" cy="298.0" rx="13.600000000000001" ry="20" fill="#eaaebe" opacity="1" transform="rotate(300.0 608 320)"/>
    <ellipse cx="608" cy="304.0" rx="12" ry="16.8" fill="#E8A7B8" opacity="1" transform="rotate(30.0 608 320)"/><ellipse cx="608" cy="304.0" rx="12" ry="16.8" fill="#E8A7B8" opacity="1" transform="rotate(90.0 608 320)"/><ellipse cx="608" cy="304.0" rx="12" ry="16.8" fill="#E8A7B8" opacity="1" transform="rotate(150.0 608 320)"/><ellipse cx="608" cy="304.0" rx="12" ry="16.8" fill="#E8A7B8" opacity="1" transform="rotate(210.0 608 320)"/><ellipse cx="608" cy="304.0" rx="12" ry="16.8" fill="#E8A7B8" opacity="1" transform="rotate(270.0 608 320)"/><ellipse cx="608" cy="304.0" rx="12" ry="16.8" fill="#E8A7B8" opacity="1" transform="rotate(330.0 608 320)"/>
    <ellipse cx="608" cy="309.6" rx="9.6" ry="12.8" fill="#cc93a2" opacity="1" transform="rotate(12.0 608 320)"/><ellipse cx="608" cy="309.6" rx="9.6" ry="12.8" fill="#cc93a2" opacity="1" transform="rotate(84.0 608 320)"/><ellipse cx="608" cy="309.6" rx="9.6" ry="12.8" fill="#cc93a2" opacity="1" transform="rotate(156.0 608 320)"/><ellipse cx="608" cy="309.6" rx="9.6" ry="12.8" fill="#cc93a2" opacity="1" transform="rotate(228.0 608 320)"/><ellipse cx="608" cy="309.6" rx="9.6" ry="12.8" fill="#cc93a2" opacity="1" transform="rotate(300.0 608 320)"/>
    <circle cx="608" cy="320" r="8.8" fill="#b58290"/>
    <circle cx="608" cy="320" r="4" fill="#efc1cd" opacity="0.8"/>
  </g><g>
      <ellipse cx="580.1332839871633" cy="445.2" rx="6.4" ry="24" fill="#FFFFFF" opacity="1" transform="rotate(0.0 580.1332839871633 470)"/><ellipse cx="580.1332839871633" cy="445.2" rx="6.4" ry="24" fill="#FFFFFF" opacity="1" transform="rotate(30.0 580.1332839871633 470)"/><ellipse cx="580.1332839871633" cy="445.2" rx="6.4" ry="24" fill="#FFFFFF" opacity="1" transform="rotate(60.0 580.1332839871633 470)"/><ellipse cx="580.1332839871633" cy="445.2" rx="6.4" ry="24" fill="#FFFFFF" opacity="1" transform="rotate(90.0 580.1332839871633 470)"/><ellipse cx="580.1332839871633" cy="445.2" rx="6.4" ry="24" fill="#FFFFFF" opacity="1" transform="rotate(120.0 580.1332839871633 470)"/><ellipse cx="580.1332839871633" cy="445.2" rx="6.4" ry="24" fill="#FFFFFF" opacity="1" transform="rotate(150.0 580.1332839871633 470)"/><ellipse cx="580.1332839871633" cy="445.2" rx="6.4" ry="24" fill="#FFFFFF" opacity="1" transform="rotate(180.0 580.1332839871633 470)"/><ellipse cx="580.1332839871633" cy="445.2" rx="6.4" ry="24" fill="#FFFFFF" opacity="1" transform="rotate(210.0 580.1332839871633 470)"/><ellipse cx="580.1332839871633" cy="445.2" rx="6.4" ry="24" fill="#FFFFFF" opacity="1" transform="rotate(240.0 580.1332839871633 470)"/><ellipse cx="580.1332839871633" cy="445.2" rx="6.4" ry="24" fill="#FFFFFF" opacity="1" transform="rotate(270.0 580.1332839871633 470)"/><ellipse cx="580.1332839871633" cy="445.2" rx="6.4" ry="24" fill="#FFFFFF" opacity="1" transform="rotate(300.0 580.1332839871633 470)"/><ellipse cx="580.1332839871633" cy="445.2" rx="6.4" ry="24" fill="#FFFFFF" opacity="1" transform="rotate(330.0 580.1332839871633 470)"/>
      <ellipse cx="580.1332839871633" cy="445.2" rx="5.2" ry="22" fill="#f4e0a1" opacity="1" transform="rotate(0.0 580.1332839871633 470)"/><ellipse cx="580.1332839871633" cy="445.2" rx="5.2" ry="22" fill="#f4e0a1" opacity="1" transform="rotate(30.0 580.1332839871633 470)"/><ellipse cx="580.1332839871633" cy="445.2" rx="5.2" ry="22" fill="#f4e0a1" opacity="1" transform="rotate(60.0 580.1332839871633 470)"/><ellipse cx="580.1332839871633" cy="445.2" rx="5.2" ry="22" fill="#f4e0a1" opacity="1" transform="rotate(90.0 580.1332839871633 470)"/><ellipse cx="580.1332839871633" cy="445.2" rx="5.2" ry="22" fill="#f4e0a1" opacity="1" transform="rotate(120.0 580.1332839871633 470)"/><ellipse cx="580.1332839871633" cy="445.2" rx="5.2" ry="22" fill="#f4e0a1" opacity="1" transform="rotate(150.0 580.1332839871633 470)"/><ellipse cx="580.1332839871633" cy="445.2" rx="5.2" ry="22" fill="#f4e0a1" opacity="1" transform="rotate(180.0 580.1332839871633 470)"/><ellipse cx="580.1332839871633" cy="445.2" rx="5.2" ry="22" fill="#f4e0a1" opacity="1" transform="rotate(210.0 580.1332839871633 470)"/><ellipse cx="580.1332839871633" cy="445.2" rx="5.2" ry="22" fill="#f4e0a1" opacity="1" transform="rotate(240.0 580.1332839871633 470)"/><ellipse cx="580.1332839871633" cy="445.2" rx="5.2" ry="22" fill="#f4e0a1" opacity="1" transform="rotate(270.0 580.1332839871633 470)"/><ellipse cx="580.1332839871633" cy="445.2" rx="5.2" ry="22" fill="#f4e0a1" opacity="1" transform="rotate(300.0 580.1332839871633 470)"/><ellipse cx="580.1332839871633" cy="445.2" rx="5.2" ry="22" fill="#f4e0a1" opacity="1" transform="rotate(330.0 580.1332839871633 470)"/>
      <circle cx="580.1332839871633" cy="470" r="12.8" fill="#F3D98C"/>
      <circle cx="580.1332839871633" cy="470" r="8" fill="#E6B85C"/>
    </g><g>
    <ellipse cx="504" cy="557.8" rx="13.600000000000001" ry="20" fill="#bfafd9" opacity="1" transform="rotate(0.0 504 579.8076211353316)"/><ellipse cx="504" cy="557.8" rx="13.600000000000001" ry="20" fill="#bfafd9" opacity="1" transform="rotate(60.0 504 579.8076211353316)"/><ellipse cx="504" cy="557.8" rx="13.600000000000001" ry="20" fill="#bfafd9" opacity="1" transform="rotate(120.0 504 579.8076211353316)"/><ellipse cx="504" cy="557.8" rx="13.600000000000001" ry="20" fill="#bfafd9" opacity="1" transform="rotate(180.0 504 579.8076211353316)"/><ellipse cx="504" cy="557.8" rx="13.600000000000001" ry="20" fill="#bfafd9" opacity="1" transform="rotate(240.0 504 579.8076211353316)"/><ellipse cx="504" cy="557.8" rx="13.600000000000001" ry="20" fill="#bfafd9" opacity="1" transform="rotate(300.0 504 579.8076211353316)"/>
    <ellipse cx="504" cy="563.8" rx="12" ry="16.8" fill="#B9A8D6" opacity="1" transform="rotate(30.0 504 579.8076211353316)"/><ellipse cx="504" cy="563.8" rx="12" ry="16.8" fill="#B9A8D6" opacity="1" transform="rotate(90.0 504 579.8076211353316)"/><ellipse cx="504" cy="563.8" rx="12" ry="16.8" fill="#B9A8D6" opacity="1" transform="rotate(150.0 504 579.8076211353316)"/><ellipse cx="504" cy="563.8" rx="12" ry="16.8" fill="#B9A8D6" opacity="1" transform="rotate(210.0 504 579.8076211353316)"/><ellipse cx="504" cy="563.8" rx="12" ry="16.8" fill="#B9A8D6" opacity="1" transform="rotate(270.0 504 579.8076211353316)"/><ellipse cx="504" cy="563.8" rx="12" ry="16.8" fill="#B9A8D6" opacity="1" transform="rotate(330.0 504 579.8076211353316)"/>
    <ellipse cx="504" cy="569.4" rx="9.6" ry="12.8" fill="#a394bc" opacity="1" transform="rotate(12.0 504 579.8076211353316)"/><ellipse cx="504" cy="569.4" rx="9.6" ry="12.8" fill="#a394bc" opacity="1" transform="rotate(84.0 504 579.8076211353316)"/><ellipse cx="504" cy="569.4" rx="9.6" ry="12.8" fill="#a394bc" opacity="1" transform="rotate(156.0 504 579.8076211353316)"/><ellipse cx="504" cy="569.4" rx="9.6" ry="12.8" fill="#a394bc" opacity="1" transform="rotate(228.0 504 579.8076211353316)"/><ellipse cx="504" cy="569.4" rx="9.6" ry="12.8" fill="#a394bc" opacity="1" transform="rotate(300.0 504 579.8076211353316)"/>
    <circle cx="504" cy="579.8076211353316" r="8.8" fill="#9083a7"/>
    <circle cx="504" cy="579.8076211353316" r="4" fill="#cec2e2" opacity="0.8"/>
  </g><g>
      <ellipse cx="400" cy="595.2" rx="6.4" ry="24" fill="#FFFFFF" opacity="1" transform="rotate(0.0 400 620)"/><ellipse cx="400" cy="595.2" rx="6.4" ry="24" fill="#FFFFFF" opacity="1" transform="rotate(30.0 400 620)"/><ellipse cx="400" cy="595.2" rx="6.4" ry="24" fill="#FFFFFF" opacity="1" transform="rotate(60.0 400 620)"/><ellipse cx="400" cy="595.2" rx="6.4" ry="24" fill="#FFFFFF" opacity="1" transform="rotate(90.0 400 620)"/><ellipse cx="400" cy="595.2" rx="6.4" ry="24" fill="#FFFFFF" opacity="1" transform="rotate(120.0 400 620)"/><ellipse cx="400" cy="595.2" rx="6.4" ry="24" fill="#FFFFFF" opacity="1" transform="rotate(150.0 400 620)"/><ellipse cx="400" cy="595.2" rx="6.4" ry="24" fill="#FFFFFF" opacity="1" transform="rotate(180.0 400 620)"/><ellipse cx="400" cy="595.2" rx="6.4" ry="24" fill="#FFFFFF" opacity="1" transform="rotate(210.0 400 620)"/><ellipse cx="400" cy="595.2" rx="6.4" ry="24" fill="#FFFFFF" opacity="1" transform="rotate(240.0 400 620)"/><ellipse cx="400" cy="595.2" rx="6.4" ry="24" fill="#FFFFFF" opacity="1" transform="rotate(270.0 400 620)"/><ellipse cx="400" cy="595.2" rx="6.4" ry="24" fill="#FFFFFF" opacity="1" transform="rotate(300.0 400 620)"/><ellipse cx="400" cy="595.2" rx="6.4" ry="24" fill="#FFFFFF" opacity="1" transform="rotate(330.0 400 620)"/>
      <ellipse cx="400" cy="595.2" rx="5.2" ry="22" fill="#ecb7c5" opacity="1" transform="rotate(0.0 400 620)"/><ellipse cx="400" cy="595.2" rx="5.2" ry="22" fill="#ecb7c5" opacity="1" transform="rotate(30.0 400 620)"/><ellipse cx="400" cy="595.2" rx="5.2" ry="22" fill="#ecb7c5" opacity="1" transform="rotate(60.0 400 620)"/><ellipse cx="400" cy="595.2" rx="5.2" ry="22" fill="#ecb7c5" opacity="1" transform="rotate(90.0 400 620)"/><ellipse cx="400" cy="595.2" rx="5.2" ry="22" fill="#ecb7c5" opacity="1" transform="rotate(120.0 400 620)"/><ellipse cx="400" cy="595.2" rx="5.2" ry="22" fill="#ecb7c5" opacity="1" transform="rotate(150.0 400 620)"/><ellipse cx="400" cy="595.2" rx="5.2" ry="22" fill="#ecb7c5" opacity="1" transform="rotate(180.0 400 620)"/><ellipse cx="400" cy="595.2" rx="5.2" ry="22" fill="#ecb7c5" opacity="1" transform="rotate(210.0 400 620)"/><ellipse cx="400" cy="595.2" rx="5.2" ry="22" fill="#ecb7c5" opacity="1" transform="rotate(240.0 400 620)"/><ellipse cx="400" cy="595.2" rx="5.2" ry="22" fill="#ecb7c5" opacity="1" transform="rotate(270.0 400 620)"/><ellipse cx="400" cy="595.2" rx="5.2" ry="22" fill="#ecb7c5" opacity="1" transform="rotate(300.0 400 620)"/><ellipse cx="400" cy="595.2" rx="5.2" ry="22" fill="#ecb7c5" opacity="1" transform="rotate(330.0 400 620)"/>
      <circle cx="400" cy="620" r="12.8" fill="#F3D98C"/>
      <circle cx="400" cy="620" r="8" fill="#E6B85C"/>
    </g><g>
    <ellipse cx="296.00000000000006" cy="557.8" rx="13.600000000000001" ry="20" fill="#f3dc95" opacity="1" transform="rotate(0.0 296.00000000000006 579.8076211353316)"/><ellipse cx="296.00000000000006" cy="557.8" rx="13.600000000000001" ry="20" fill="#f3dc95" opacity="1" transform="rotate(60.0 296.00000000000006 579.8076211353316)"/><ellipse cx="296.00000000000006" cy="557.8" rx="13.600000000000001" ry="20" fill="#f3dc95" opacity="1" transform="rotate(120.0 296.00000000000006 579.8076211353316)"/><ellipse cx="296.00000000000006" cy="557.8" rx="13.600000000000001" ry="20" fill="#f3dc95" opacity="1" transform="rotate(180.0 296.00000000000006 579.8076211353316)"/><ellipse cx="296.00000000000006" cy="557.8" rx="13.600000000000001" ry="20" fill="#f3dc95" opacity="1" transform="rotate(240.0 296.00000000000006 579.8076211353316)"/><ellipse cx="296.00000000000006" cy="557.8" rx="13.600000000000001" ry="20" fill="#f3dc95" opacity="1" transform="rotate(300.0 296.00000000000006 579.8076211353316)"/>
    <ellipse cx="296.00000000000006" cy="563.8" rx="12" ry="16.8" fill="#F2D98C" opacity="1" transform="rotate(30.0 296.00000000000006 579.8076211353316)"/><ellipse cx="296.00000000000006" cy="563.8" rx="12" ry="16.8" fill="#F2D98C" opacity="1" transform="rotate(90.0 296.00000000000006 579.8076211353316)"/><ellipse cx="296.00000000000006" cy="563.8" rx="12" ry="16.8" fill="#F2D98C" opacity="1" transform="rotate(150.0 296.00000000000006 579.8076211353316)"/><ellipse cx="296.00000000000006" cy="563.8" rx="12" ry="16.8" fill="#F2D98C" opacity="1" transform="rotate(210.0 296.00000000000006 579.8076211353316)"/><ellipse cx="296.00000000000006" cy="563.8" rx="12" ry="16.8" fill="#F2D98C" opacity="1" transform="rotate(270.0 296.00000000000006 579.8076211353316)"/><ellipse cx="296.00000000000006" cy="563.8" rx="12" ry="16.8" fill="#F2D98C" opacity="1" transform="rotate(330.0 296.00000000000006 579.8076211353316)"/>
    <ellipse cx="296.00000000000006" cy="569.4" rx="9.6" ry="12.8" fill="#d5bf7b" opacity="1" transform="rotate(12.0 296.00000000000006 579.8076211353316)"/><ellipse cx="296.00000000000006" cy="569.4" rx="9.6" ry="12.8" fill="#d5bf7b" opacity="1" transform="rotate(84.0 296.00000000000006 579.8076211353316)"/><ellipse cx="296.00000000000006" cy="569.4" rx="9.6" ry="12.8" fill="#d5bf7b" opacity="1" transform="rotate(156.0 296.00000000000006 579.8076211353316)"/><ellipse cx="296.00000000000006" cy="569.4" rx="9.6" ry="12.8" fill="#d5bf7b" opacity="1" transform="rotate(228.0 296.00000000000006 579.8076211353316)"/><ellipse cx="296.00000000000006" cy="569.4" rx="9.6" ry="12.8" fill="#d5bf7b" opacity="1" transform="rotate(300.0 296.00000000000006 579.8076211353316)"/>
    <circle cx="296.00000000000006" cy="579.8076211353316" r="8.8" fill="#bda96d"/>
    <circle cx="296.00000000000006" cy="579.8076211353316" r="4" fill="#f6e4af" opacity="0.8"/>
  </g><g>
      <ellipse cx="219.86671601283675" cy="445.2" rx="6.4" ry="24" fill="#FFFFFF" opacity="1" transform="rotate(0.0 219.86671601283675 470)"/><ellipse cx="219.86671601283675" cy="445.2" rx="6.4" ry="24" fill="#FFFFFF" opacity="1" transform="rotate(30.0 219.86671601283675 470)"/><ellipse cx="219.86671601283675" cy="445.2" rx="6.4" ry="24" fill="#FFFFFF" opacity="1" transform="rotate(60.0 219.86671601283675 470)"/><ellipse cx="219.86671601283675" cy="445.2" rx="6.4" ry="24" fill="#FFFFFF" opacity="1" transform="rotate(90.0 219.86671601283675 470)"/><ellipse cx="219.86671601283675" cy="445.2" rx="6.4" ry="24" fill="#FFFFFF" opacity="1" transform="rotate(120.0 219.86671601283675 470)"/><ellipse cx="219.86671601283675" cy="445.2" rx="6.4" ry="24" fill="#FFFFFF" opacity="1" transform="rotate(150.0 219.86671601283675 470)"/><ellipse cx="219.86671601283675" cy="445.2" rx="6.4" ry="24" fill="#FFFFFF" opacity="1" transform="rotate(180.0 219.86671601283675 470)"/><ellipse cx="219.86671601283675" cy="445.2" rx="6.4" ry="24" fill="#FFFFFF" opacity="1" transform="rotate(210.0 219.86671601283675 470)"/><ellipse cx="219.86671601283675" cy="445.2" rx="6.4" ry="24" fill="#FFFFFF" opacity="1" transform="rotate(240.0 219.86671601283675 470)"/><ellipse cx="219.86671601283675" cy="445.2" rx="6.4" ry="24" fill="#FFFFFF" opacity="1" transform="rotate(270.0 219.86671601283675 470)"/><ellipse cx="219.86671601283675" cy="445.2" rx="6.4" ry="24" fill="#FFFFFF" opacity="1" transform="rotate(300.0 219.86671601283675 470)"/><ellipse cx="219.86671601283675" cy="445.2" rx="6.4" ry="24" fill="#FFFFFF" opacity="1" transform="rotate(330.0 219.86671601283675 470)"/>
      <ellipse cx="219.86671601283675" cy="445.2" rx="5.2" ry="22" fill="#c6b8dd" opacity="1" transform="rotate(0.0 219.86671601283675 470)"/><ellipse cx="219.86671601283675" cy="445.2" rx="5.2" ry="22" fill="#c6b8dd" opacity="1" transform="rotate(30.0 219.86671601283675 470)"/><ellipse cx="219.86671601283675" cy="445.2" rx="5.2" ry="22" fill="#c6b8dd" opacity="1" transform="rotate(60.0 219.86671601283675 470)"/><ellipse cx="219.86671601283675" cy="445.2" rx="5.2" ry="22" fill="#c6b8dd" opacity="1" transform="rotate(90.0 219.86671601283675 470)"/><ellipse cx="219.86671601283675" cy="445.2" rx="5.2" ry="22" fill="#c6b8dd" opacity="1" transform="rotate(120.0 219.86671601283675 470)"/><ellipse cx="219.86671601283675" cy="445.2" rx="5.2" ry="22" fill="#c6b8dd" opacity="1" transform="rotate(150.0 219.86671601283675 470)"/><ellipse cx="219.86671601283675" cy="445.2" rx="5.2" ry="22" fill="#c6b8dd" opacity="1" transform="rotate(180.0 219.86671601283675 470)"/><ellipse cx="219.86671601283675" cy="445.2" rx="5.2" ry="22" fill="#c6b8dd" opacity="1" transform="rotate(210.0 219.86671601283675 470)"/><ellipse cx="219.86671601283675" cy="445.2" rx="5.2" ry="22" fill="#c6b8dd" opacity="1" transform="rotate(240.0 219.86671601283675 470)"/><ellipse cx="219.86671601283675" cy="445.2" rx="5.2" ry="22" fill="#c6b8dd" opacity="1" transform="rotate(270.0 219.86671601283675 470)"/><ellipse cx="219.86671601283675" cy="445.2" rx="5.2" ry="22" fill="#c6b8dd" opacity="1" transform="rotate(300.0 219.86671601283675 470)"/><ellipse cx="219.86671601283675" cy="445.2" rx="5.2" ry="22" fill="#c6b8dd" opacity="1" transform="rotate(330.0 219.86671601283675 470)"/>
      <circle cx="219.86671601283675" cy="470" r="12.8" fill="#F3D98C"/>
      <circle cx="219.86671601283675" cy="470" r="8" fill="#E6B85C"/>
    </g><g>
    <ellipse cx="192" cy="298.0" rx="13.600000000000001" ry="20" fill="#eaaebe" opacity="1" transform="rotate(0.0 192 320.00000000000006)"/><ellipse cx="192" cy="298.0" rx="13.600000000000001" ry="20" fill="#eaaebe" opacity="1" transform="rotate(60.0 192 320.00000000000006)"/><ellipse cx="192" cy="298.0" rx="13.600000000000001" ry="20" fill="#eaaebe" opacity="1" transform="rotate(120.0 192 320.00000000000006)"/><ellipse cx="192" cy="298.0" rx="13.600000000000001" ry="20" fill="#eaaebe" opacity="1" transform="rotate(180.0 192 320.00000000000006)"/><ellipse cx="192" cy="298.0" rx="13.600000000000001" ry="20" fill="#eaaebe" opacity="1" transform="rotate(240.0 192 320.00000000000006)"/><ellipse cx="192" cy="298.0" rx="13.600000000000001" ry="20" fill="#eaaebe" opacity="1" transform="rotate(300.0 192 320.00000000000006)"/>
    <ellipse cx="192" cy="304.0" rx="12" ry="16.8" fill="#E8A7B8" opacity="1" transform="rotate(30.0 192 320.00000000000006)"/><ellipse cx="192" cy="304.0" rx="12" ry="16.8" fill="#E8A7B8" opacity="1" transform="rotate(90.0 192 320.00000000000006)"/><ellipse cx="192" cy="304.0" rx="12" ry="16.8" fill="#E8A7B8" opacity="1" transform="rotate(150.0 192 320.00000000000006)"/><ellipse cx="192" cy="304.0" rx="12" ry="16.8" fill="#E8A7B8" opacity="1" transform="rotate(210.0 192 320.00000000000006)"/><ellipse cx="192" cy="304.0" rx="12" ry="16.8" fill="#E8A7B8" opacity="1" transform="rotate(270.0 192 320.00000000000006)"/><ellipse cx="192" cy="304.0" rx="12" ry="16.8" fill="#E8A7B8" opacity="1" transform="rotate(330.0 192 320.00000000000006)"/>
    <ellipse cx="192" cy="309.6" rx="9.6" ry="12.8" fill="#cc93a2" opacity="1" transform="rotate(12.0 192 320.00000000000006)"/><ellipse cx="192" cy="309.6" rx="9.6" ry="12.8" fill="#cc93a2" opacity="1" transform="rotate(84.0 192 320.00000000000006)"/><ellipse cx="192" cy="309.6" rx="9.6" ry="12.8" fill="#cc93a2" opacity="1" transform="rotate(156.0 192 320.00000000000006)"/><ellipse cx="192" cy="309.6" rx="9.6" ry="12.8" fill="#cc93a2" opacity="1" transform="rotate(228.0 192 320.00000000000006)"/><ellipse cx="192" cy="309.6" rx="9.6" ry="12.8" fill="#cc93a2" opacity="1" transform="rotate(300.0 192 320.00000000000006)"/>
    <circle cx="192" cy="320.00000000000006" r="8.8" fill="#b58290"/>
    <circle cx="192" cy="320.00000000000006" r="4" fill="#efc1cd" opacity="0.8"/>
  </g><g>
      <ellipse cx="219.86671601283678" cy="145.2" rx="6.4" ry="24" fill="#FFFFFF" opacity="1" transform="rotate(0.0 219.86671601283678 169.99999999999997)"/><ellipse cx="219.86671601283678" cy="145.2" rx="6.4" ry="24" fill="#FFFFFF" opacity="1" transform="rotate(30.0 219.86671601283678 169.99999999999997)"/><ellipse cx="219.86671601283678" cy="145.2" rx="6.4" ry="24" fill="#FFFFFF" opacity="1" transform="rotate(60.0 219.86671601283678 169.99999999999997)"/><ellipse cx="219.86671601283678" cy="145.2" rx="6.4" ry="24" fill="#FFFFFF" opacity="1" transform="rotate(90.0 219.86671601283678 169.99999999999997)"/><ellipse cx="219.86671601283678" cy="145.2" rx="6.4" ry="24" fill="#FFFFFF" opacity="1" transform="rotate(120.0 219.86671601283678 169.99999999999997)"/><ellipse cx="219.86671601283678" cy="145.2" rx="6.4" ry="24" fill="#FFFFFF" opacity="1" transform="rotate(150.0 219.86671601283678 169.99999999999997)"/><ellipse cx="219.86671601283678" cy="145.2" rx="6.4" ry="24" fill="#FFFFFF" opacity="1" transform="rotate(180.0 219.86671601283678 169.99999999999997)"/><ellipse cx="219.86671601283678" cy="145.2" rx="6.4" ry="24" fill="#FFFFFF" opacity="1" transform="rotate(210.0 219.86671601283678 169.99999999999997)"/><ellipse cx="219.86671601283678" cy="145.2" rx="6.4" ry="24" fill="#FFFFFF" opacity="1" transform="rotate(240.0 219.86671601283678 169.99999999999997)"/><ellipse cx="219.86671601283678" cy="145.2" rx="6.4" ry="24" fill="#FFFFFF" opacity="1" transform="rotate(270.0 219.86671601283678 169.99999999999997)"/><ellipse cx="219.86671601283678" cy="145.2" rx="6.4" ry="24" fill="#FFFFFF" opacity="1" transform="rotate(300.0 219.86671601283678 169.99999999999997)"/><ellipse cx="219.86671601283678" cy="145.2" rx="6.4" ry="24" fill="#FFFFFF" opacity="1" transform="rotate(330.0 219.86671601283678 169.99999999999997)"/>
      <ellipse cx="219.86671601283678" cy="145.2" rx="5.2" ry="22" fill="#f4e0a1" opacity="1" transform="rotate(0.0 219.86671601283678 169.99999999999997)"/><ellipse cx="219.86671601283678" cy="145.2" rx="5.2" ry="22" fill="#f4e0a1" opacity="1" transform="rotate(30.0 219.86671601283678 169.99999999999997)"/><ellipse cx="219.86671601283678" cy="145.2" rx="5.2" ry="22" fill="#f4e0a1" opacity="1" transform="rotate(60.0 219.86671601283678 169.99999999999997)"/><ellipse cx="219.86671601283678" cy="145.2" rx="5.2" ry="22" fill="#f4e0a1" opacity="1" transform="rotate(90.0 219.86671601283678 169.99999999999997)"/><ellipse cx="219.86671601283678" cy="145.2" rx="5.2" ry="22" fill="#f4e0a1" opacity="1" transform="rotate(120.0 219.86671601283678 169.99999999999997)"/><ellipse cx="219.86671601283678" cy="145.2" rx="5.2" ry="22" fill="#f4e0a1" opacity="1" transform="rotate(150.0 219.86671601283678 169.99999999999997)"/><ellipse cx="219.86671601283678" cy="145.2" rx="5.2" ry="22" fill="#f4e0a1" opacity="1" transform="rotate(180.0 219.86671601283678 169.99999999999997)"/><ellipse cx="219.86671601283678" cy="145.2" rx="5.2" ry="22" fill="#f4e0a1" opacity="1" transform="rotate(210.0 219.86671601283678 169.99999999999997)"/><ellipse cx="219.86671601283678" cy="145.2" rx="5.2" ry="22" fill="#f4e0a1" opacity="1" transform="rotate(240.0 219.86671601283678 169.99999999999997)"/><ellipse cx="219.86671601283678" cy="145.2" rx="5.2" ry="22" fill="#f4e0a1" opacity="1" transform="rotate(270.0 219.86671601283678 169.99999999999997)"/><ellipse cx="219.86671601283678" cy="145.2" rx="5.2" ry="22" fill="#f4e0a1" opacity="1" transform="rotate(300.0 219.86671601283678 169.99999999999997)"/><ellipse cx="219.86671601283678" cy="145.2" rx="5.2" ry="22" fill="#f4e0a1" opacity="1" transform="rotate(330.0 219.86671601283678 169.99999999999997)"/>
      <circle cx="219.86671601283678" cy="169.99999999999997" r="12.8" fill="#F3D98C"/>
      <circle cx="219.86671601283678" cy="169.99999999999997" r="8" fill="#E6B85C"/>
    </g><g>
    <ellipse cx="295.9999999999999" cy="38.2" rx="13.600000000000001" ry="20" fill="#bfafd9" opacity="1" transform="rotate(0.0 295.9999999999999 60.192378864668456)"/><ellipse cx="295.9999999999999" cy="38.2" rx="13.600000000000001" ry="20" fill="#bfafd9" opacity="1" transform="rotate(60.0 295.9999999999999 60.192378864668456)"/><ellipse cx="295.9999999999999" cy="38.2" rx="13.600000000000001" ry="20" fill="#bfafd9" opacity="1" transform="rotate(120.0 295.9999999999999 60.192378864668456)"/><ellipse cx="295.9999999999999" cy="38.2" rx="13.600000000000001" ry="20" fill="#bfafd9" opacity="1" transform="rotate(180.0 295.9999999999999 60.192378864668456)"/><ellipse cx="295.9999999999999" cy="38.2" rx="13.600000000000001" ry="20" fill="#bfafd9" opacity="1" transform="rotate(240.0 295.9999999999999 60.192378864668456)"/><ellipse cx="295.9999999999999" cy="38.2" rx="13.600000000000001" ry="20" fill="#bfafd9" opacity="1" transform="rotate(300.0 295.9999999999999 60.192378864668456)"/>
    <ellipse cx="295.9999999999999" cy="44.2" rx="12" ry="16.8" fill="#B9A8D6" opacity="1" transform="rotate(30.0 295.9999999999999 60.192378864668456)"/><ellipse cx="295.9999999999999" cy="44.2" rx="12" ry="16.8" fill="#B9A8D6" opacity="1" transform="rotate(90.0 295.9999999999999 60.192378864668456)"/><ellipse cx="295.9999999999999" cy="44.2" rx="12" ry="16.8" fill="#B9A8D6" opacity="1" transform="rotate(150.0 295.9999999999999 60.192378864668456)"/><ellipse cx="295.9999999999999" cy="44.2" rx="12" ry="16.8" fill="#B9A8D6" opacity="1" transform="rotate(210.0 295.9999999999999 60.192378864668456)"/><ellipse cx="295.9999999999999" cy="44.2" rx="12" ry="16.8" fill="#B9A8D6" opacity="1" transform="rotate(270.0 295.9999999999999 60.192378864668456)"/><ellipse cx="295.9999999999999" cy="44.2" rx="12" ry="16.8" fill="#B9A8D6" opacity="1" transform="rotate(330.0 295.9999999999999 60.192378864668456)"/>
    <ellipse cx="295.9999999999999" cy="49.8" rx="9.6" ry="12.8" fill="#a394bc" opacity="1" transform="rotate(12.0 295.9999999999999 60.192378864668456)"/><ellipse cx="295.9999999999999" cy="49.8" rx="9.6" ry="12.8" fill="#a394bc" opacity="1" transform="rotate(84.0 295.9999999999999 60.192378864668456)"/><ellipse cx="295.9999999999999" cy="49.8" rx="9.6" ry="12.8" fill="#a394bc" opacity="1" transform="rotate(156.0 295.9999999999999 60.192378864668456)"/><ellipse cx="295.9999999999999" cy="49.8" rx="9.6" ry="12.8" fill="#a394bc" opacity="1" transform="rotate(228.0 295.9999999999999 60.192378864668456)"/><ellipse cx="295.9999999999999" cy="49.8" rx="9.6" ry="12.8" fill="#a394bc" opacity="1" transform="rotate(300.0 295.9999999999999 60.192378864668456)"/>
    <circle cx="295.9999999999999" cy="60.192378864668456" r="8.8" fill="#9083a7"/>
    <circle cx="295.9999999999999" cy="60.192378864668456" r="4" fill="#cec2e2" opacity="0.8"/>
  </g><g>
      <ellipse cx="399.99999999999994" cy="-4.8" rx="6.4" ry="24" fill="#FFFFFF" opacity="1" transform="rotate(0.0 399.99999999999994 20)"/><ellipse cx="399.99999999999994" cy="-4.8" rx="6.4" ry="24" fill="#FFFFFF" opacity="1" transform="rotate(30.0 399.99999999999994 20)"/><ellipse cx="399.99999999999994" cy="-4.8" rx="6.4" ry="24" fill="#FFFFFF" opacity="1" transform="rotate(60.0 399.99999999999994 20)"/><ellipse cx="399.99999999999994" cy="-4.8" rx="6.4" ry="24" fill="#FFFFFF" opacity="1" transform="rotate(90.0 399.99999999999994 20)"/><ellipse cx="399.99999999999994" cy="-4.8" rx="6.4" ry="24" fill="#FFFFFF" opacity="1" transform="rotate(120.0 399.99999999999994 20)"/><ellipse cx="399.99999999999994" cy="-4.8" rx="6.4" ry="24" fill="#FFFFFF" opacity="1" transform="rotate(150.0 399.99999999999994 20)"/><ellipse cx="399.99999999999994" cy="-4.8" rx="6.4" ry="24" fill="#FFFFFF" opacity="1" transform="rotate(180.0 399.99999999999994 20)"/><ellipse cx="399.99999999999994" cy="-4.8" rx="6.4" ry="24" fill="#FFFFFF" opacity="1" transform="rotate(210.0 399.99999999999994 20)"/><ellipse cx="399.99999999999994" cy="-4.8" rx="6.4" ry="24" fill="#FFFFFF" opacity="1" transform="rotate(240.0 399.99999999999994 20)"/><ellipse cx="399.99999999999994" cy="-4.8" rx="6.4" ry="24" fill="#FFFFFF" opacity="1" transform="rotate(270.0 399.99999999999994 20)"/><ellipse cx="399.99999999999994" cy="-4.8" rx="6.4" ry="24" fill="#FFFFFF" opacity="1" transform="rotate(300.0 399.99999999999994 20)"/><ellipse cx="399.99999999999994" cy="-4.8" rx="6.4" ry="24" fill="#FFFFFF" opacity="1" transform="rotate(330.0 399.99999999999994 20)"/>
      <ellipse cx="399.99999999999994" cy="-4.8" rx="5.2" ry="22" fill="#ecb7c5" opacity="1" transform="rotate(0.0 399.99999999999994 20)"/><ellipse cx="399.99999999999994" cy="-4.8" rx="5.2" ry="22" fill="#ecb7c5" opacity="1" transform="rotate(30.0 399.99999999999994 20)"/><ellipse cx="399.99999999999994" cy="-4.8" rx="5.2" ry="22" fill="#ecb7c5" opacity="1" transform="rotate(60.0 399.99999999999994 20)"/><ellipse cx="399.99999999999994" cy="-4.8" rx="5.2" ry="22" fill="#ecb7c5" opacity="1" transform="rotate(90.0 399.99999999999994 20)"/><ellipse cx="399.99999999999994" cy="-4.8" rx="5.2" ry="22" fill="#ecb7c5" opacity="1" transform="rotate(120.0 399.99999999999994 20)"/><ellipse cx="399.99999999999994" cy="-4.8" rx="5.2" ry="22" fill="#ecb7c5" opacity="1" transform="rotate(150.0 399.99999999999994 20)"/><ellipse cx="399.99999999999994" cy="-4.8" rx="5.2" ry="22" fill="#ecb7c5" opacity="1" transform="rotate(180.0 399.99999999999994 20)"/><ellipse cx="399.99999999999994" cy="-4.8" rx="5.2" ry="22" fill="#ecb7c5" opacity="1" transform="rotate(210.0 399.99999999999994 20)"/><ellipse cx="399.99999999999994" cy="-4.8" rx="5.2" ry="22" fill="#ecb7c5" opacity="1" transform="rotate(240.0 399.99999999999994 20)"/><ellipse cx="399.99999999999994" cy="-4.8" rx="5.2" ry="22" fill="#ecb7c5" opacity="1" transform="rotate(270.0 399.99999999999994 20)"/><ellipse cx="399.99999999999994" cy="-4.8" rx="5.2" ry="22" fill="#ecb7c5" opacity="1" transform="rotate(300.0 399.99999999999994 20)"/><ellipse cx="399.99999999999994" cy="-4.8" rx="5.2" ry="22" fill="#ecb7c5" opacity="1" transform="rotate(330.0 399.99999999999994 20)"/>
      <circle cx="399.99999999999994" cy="20" r="12.8" fill="#F3D98C"/>
      <circle cx="399.99999999999994" cy="20" r="8" fill="#E6B85C"/>
    </g><g>
    <ellipse cx="504" cy="38.2" rx="13.600000000000001" ry="20" fill="#f3dc95" opacity="1" transform="rotate(0.0 504 60.1923788646684)"/><ellipse cx="504" cy="38.2" rx="13.600000000000001" ry="20" fill="#f3dc95" opacity="1" transform="rotate(60.0 504 60.1923788646684)"/><ellipse cx="504" cy="38.2" rx="13.600000000000001" ry="20" fill="#f3dc95" opacity="1" transform="rotate(120.0 504 60.1923788646684)"/><ellipse cx="504" cy="38.2" rx="13.600000000000001" ry="20" fill="#f3dc95" opacity="1" transform="rotate(180.0 504 60.1923788646684)"/><ellipse cx="504" cy="38.2" rx="13.600000000000001" ry="20" fill="#f3dc95" opacity="1" transform="rotate(240.0 504 60.1923788646684)"/><ellipse cx="504" cy="38.2" rx="13.600000000000001" ry="20" fill="#f3dc95" opacity="1" transform="rotate(300.0 504 60.1923788646684)"/>
    <ellipse cx="504" cy="44.2" rx="12" ry="16.8" fill="#F2D98C" opacity="1" transform="rotate(30.0 504 60.1923788646684)"/><ellipse cx="504" cy="44.2" rx="12" ry="16.8" fill="#F2D98C" opacity="1" transform="rotate(90.0 504 60.1923788646684)"/><ellipse cx="504" cy="44.2" rx="12" ry="16.8" fill="#F2D98C" opacity="1" transform="rotate(150.0 504 60.1923788646684)"/><ellipse cx="504" cy="44.2" rx="12" ry="16.8" fill="#F2D98C" opacity="1" transform="rotate(210.0 504 60.1923788646684)"/><ellipse cx="504" cy="44.2" rx="12" ry="16.8" fill="#F2D98C" opacity="1" transform="rotate(270.0 504 60.1923788646684)"/><ellipse cx="504" cy="44.2" rx="12" ry="16.8" fill="#F2D98C" opacity="1" transform="rotate(330.0 504 60.1923788646684)"/>
    <ellipse cx="504" cy="49.8" rx="9.6" ry="12.8" fill="#d5bf7b" opacity="1" transform="rotate(12.0 504 60.1923788646684)"/><ellipse cx="504" cy="49.8" rx="9.6" ry="12.8" fill="#d5bf7b" opacity="1" transform="rotate(84.0 504 60.1923788646684)"/><ellipse cx="504" cy="49.8" rx="9.6" ry="12.8" fill="#d5bf7b" opacity="1" transform="rotate(156.0 504 60.1923788646684)"/><ellipse cx="504" cy="49.8" rx="9.6" ry="12.8" fill="#d5bf7b" opacity="1" transform="rotate(228.0 504 60.1923788646684)"/><ellipse cx="504" cy="49.8" rx="9.6" ry="12.8" fill="#d5bf7b" opacity="1" transform="rotate(300.0 504 60.1923788646684)"/>
    <circle cx="504" cy="60.1923788646684" r="8.8" fill="#bda96d"/>
    <circle cx="504" cy="60.1923788646684" r="4" fill="#f6e4af" opacity="0.8"/>
  </g><g>
      <ellipse cx="580.1332839871632" cy="145.2" rx="6.4" ry="24" fill="#FFFFFF" opacity="1" transform="rotate(0.0 580.1332839871632 169.99999999999986)"/><ellipse cx="580.1332839871632" cy="145.2" rx="6.4" ry="24" fill="#FFFFFF" opacity="1" transform="rotate(30.0 580.1332839871632 169.99999999999986)"/><ellipse cx="580.1332839871632" cy="145.2" rx="6.4" ry="24" fill="#FFFFFF" opacity="1" transform="rotate(60.0 580.1332839871632 169.99999999999986)"/><ellipse cx="580.1332839871632" cy="145.2" rx="6.4" ry="24" fill="#FFFFFF" opacity="1" transform="rotate(90.0 580.1332839871632 169.99999999999986)"/><ellipse cx="580.1332839871632" cy="145.2" rx="6.4" ry="24" fill="#FFFFFF" opacity="1" transform="rotate(120.0 580.1332839871632 169.99999999999986)"/><ellipse cx="580.1332839871632" cy="145.2" rx="6.4" ry="24" fill="#FFFFFF" opacity="1" transform="rotate(150.0 580.1332839871632 169.99999999999986)"/><ellipse cx="580.1332839871632" cy="145.2" rx="6.4" ry="24" fill="#FFFFFF" opacity="1" transform="rotate(180.0 580.1332839871632 169.99999999999986)"/><ellipse cx="580.1332839871632" cy="145.2" rx="6.4" ry="24" fill="#FFFFFF" opacity="1" transform="rotate(210.0 580.1332839871632 169.99999999999986)"/><ellipse cx="580.1332839871632" cy="145.2" rx="6.4" ry="24" fill="#FFFFFF" opacity="1" transform="rotate(240.0 580.1332839871632 169.99999999999986)"/><ellipse cx="580.1332839871632" cy="145.2" rx="6.4" ry="24" fill="#FFFFFF" opacity="1" transform="rotate(270.0 580.1332839871632 169.99999999999986)"/><ellipse cx="580.1332839871632" cy="145.2" rx="6.4" ry="24" fill="#FFFFFF" opacity="1" transform="rotate(300.0 580.1332839871632 169.99999999999986)"/><ellipse cx="580.1332839871632" cy="145.2" rx="6.4" ry="24" fill="#FFFFFF" opacity="1" transform="rotate(330.0 580.1332839871632 169.99999999999986)"/>
      <ellipse cx="580.1332839871632" cy="145.2" rx="5.2" ry="22" fill="#c6b8dd" opacity="1" transform="rotate(0.0 580.1332839871632 169.99999999999986)"/><ellipse cx="580.1332839871632" cy="145.2" rx="5.2" ry="22" fill="#c6b8dd" opacity="1" transform="rotate(30.0 580.1332839871632 169.99999999999986)"/><ellipse cx="580.1332839871632" cy="145.2" rx="5.2" ry="22" fill="#c6b8dd" opacity="1" transform="rotate(60.0 580.1332839871632 169.99999999999986)"/><ellipse cx="580.1332839871632" cy="145.2" rx="5.2" ry="22" fill="#c6b8dd" opacity="1" transform="rotate(90.0 580.1332839871632 169.99999999999986)"/><ellipse cx="580.1332839871632" cy="145.2" rx="5.2" ry="22" fill="#c6b8dd" opacity="1" transform="rotate(120.0 580.1332839871632 169.99999999999986)"/><ellipse cx="580.1332839871632" cy="145.2" rx="5.2" ry="22" fill="#c6b8dd" opacity="1" transform="rotate(150.0 580.1332839871632 169.99999999999986)"/><ellipse cx="580.1332839871632" cy="145.2" rx="5.2" ry="22" fill="#c6b8dd" opacity="1" transform="rotate(180.0 580.1332839871632 169.99999999999986)"/><ellipse cx="580.1332839871632" cy="145.2" rx="5.2" ry="22" fill="#c6b8dd" opacity="1" transform="rotate(210.0 580.1332839871632 169.99999999999986)"/><ellipse cx="580.1332839871632" cy="145.2" rx="5.2" ry="22" fill="#c6b8dd" opacity="1" transform="rotate(240.0 580.1332839871632 169.99999999999986)"/><ellipse cx="580.1332839871632" cy="145.2" rx="5.2" ry="22" fill="#c6b8dd" opacity="1" transform="rotate(270.0 580.1332839871632 169.99999999999986)"/><ellipse cx="580.1332839871632" cy="145.2" rx="5.2" ry="22" fill="#c6b8dd" opacity="1" transform="rotate(300.0 580.1332839871632 169.99999999999986)"/><ellipse cx="580.1332839871632" cy="145.2" rx="5.2" ry="22" fill="#c6b8dd" opacity="1" transform="rotate(330.0 580.1332839871632 169.99999999999986)"/>
      <circle cx="580.1332839871632" cy="169.99999999999986" r="12.8" fill="#F3D98C"/>
      <circle cx="580.1332839871632" cy="169.99999999999986" r="8" fill="#E6B85C"/>
    </g><rect x="272" y="280" width="256" height="90" rx="20" fill="#FFFFFF" opacity="0.85"/><line x1="304" y1="320" x2="496" y2="320" stroke="#a0af97" stroke-width="2" opacity="0.5"/><line x1="304" y1="345" x2="464" y2="345" stroke="#a0af97" stroke-width="2" opacity="0.5"/></svg>