<svg xmlns="http://www.w3.org/2000/svg" width="800" height="1000" viewBox="0 0 800 1000">
  <defs>
    <linearGradient id="gnjuv5" x1="0" y1="0" x2="1" y2="1">
      <stop offset="0" stop-color="#EEE9F3"/>
      <stop offset="1" stop-color="#DCD3E8"/>
    </linearGradient>
  </defs>
  <rect width="800" height="1000" fill="url(#gnjuv5)"/>
  <g transform="translate(400 460) scale(4.444444444444445)"><ellipse cx="26.0" cy="0.0" rx="16" ry="24" fill="#EEE9F3" opacity="0.9" transform="rotate(0 26.0 0.0)"/><ellipse cx="13.0" cy="22.5" rx="16" ry="24" fill="#EEE9F3" opacity="0.9" transform="rotate(60 13.0 22.5)"/><ellipse cx="-13.0" cy="22.5" rx="16" ry="24" fill="#EEE9F3" opacity="0.9" transform="rotate(120 -13.0 22.5)"/><ellipse cx="-26.0" cy="0.0" rx="16" ry="24" fill="#EEE9F3" opacity="0.9" transform="rotate(180 -26.0 0.0)"/><ellipse cx="-13.0" cy="-22.5" rx="16" ry="24" fill="#EEE9F3" opacity="0.9" transform="rotate(240 -13.0 -22.5)"/><ellipse cx="13.0" cy="-22.5" rx="16" ry="24" fill="#EEE9F3" opacity="0.9" transform="rotate(300 13.0 -22.5)"/><circle cx="0" cy="0" r="14" fill="#C3B6D9"/></g>
  <g transform="translate(224.00000000000003 620) scale(3.3333333333333335)"><ellipse cx="26.0" cy="0.0" rx="16" ry="24" fill="#ffffff" opacity="0.9" transform="rotate(0 26.0 0.0)"/><ellipse cx="13.0" cy="22.5" rx="16" ry="24" fill="#ffffff" opacity="0.9" transform="rotate(60 13.0 22.5)"/><ellipse cx="-13.0" cy="22.5" rx="16" ry="24" fill="#ffffff" opacity="0.9" transform="rotate(120 -13.0 22.5)"/><ellipse cx="-26.0" cy="0.0" rx="16" ry="24" fill="#ffffff" opacity="0.9" transform="rotate(180 -26.0 0.0)"/><ellipse cx="-13.0" cy="-22.5" rx="16" ry="24" fill="#ffffff" opacity="0.9" transform="rotate(240 -13.0 -22.5)"/><ellipse cx="13.0" cy="-22.5" rx="16" ry="24" fill="#ffffff" opacity="0.9" transform="rotate(300 13.0 -22.5)"/><circle cx="0" cy="0" r="14" fill="#C3B6D9"/></g>
  <g transform="translate(576 600) scale(3.3333333333333335)"><ellipse cx="26.0" cy="0.0" rx="16" ry="24" fill="#ffffff" opacity="0.9" transform="rotate(0 26.0 0.0)"/><ellipse cx="13.0" cy="22.5" rx="16" ry="24" fill="#ffffff" opacity="0.9" transform="rotate(60 13.0 22.5)"/><ellipse cx="-13.0" cy="22.5" rx="16" ry="24" fill="#ffffff" opacity="0.9" transform="rotate(120 -13.0 22.5)"/><ellipse cx="-26.0" cy="0.0" rx="16" ry="24" fill="#ffffff" opacity="0.9" transform="rotate(180 -26.0 0.0)"/><ellipse cx="-13.0" cy="-22.5" rx="16" ry="24" fill="#ffffff" opacity="0.9" transform="rotate(240 -13.0 -22.5)"/><ellipse cx="13.0" cy="-22.5" rx="16" ry="24" fill="#ffffff" opacity="0.9" transform="rotate(300 13.0 -22.5)"/><circle cx="0" cy="0" r="14" fill="#C3B6D9"/></g>
  <path d="M400 550 L400 850" stroke="#C3B6D9" stroke-width="4" stroke-linecap="round" opacity="0.6"/>
</svg>