<svg xmlns="http://www.w3.org/2000/svg" width="800" height="1000" viewBox="0 0 800 1000"><defs><radialGradient id="g4" cx="50%" cy="38%" r="75%">
      <stop offset="0" stop-color="#eff4ec"/>
      <stop offset="1" stop-color="#CFDcC8"/>
    </radialGradient></defs>
    <rect width="800" height="1000" fill="url(#g4)"/>
    <circle cx="144" cy="200" r="104" fill="#FFFFFF" opacity="0.12"/>
    <circle cx="672" cy="700" r="128" fill="#FFFFFF" opacity="0.1"/><g transform="rotate(-44 400 600)">
    <ellipse cx="400" cy="350" rx="140" ry="250" fill="#C7D2C0"/>
    <line x1="400" y1="600" x2="400" y2="100" stroke="#a3ac9d" stroke-width="20"/>
  </g><g transform="rotate(-22 400 600)">
    <ellipse cx="400" cy="350" rx="140" ry="250" fill="#A8B89F"/>
    <line x1="400" y1="600" x2="400" y2="100" stroke="#8a9782" stroke-width="20"/>
  </g><g transform="rotate(0 400 600)">
    <ellipse cx="400" cy="350" rx="140" ry="250" fill="#C7D2C0"/>
    <line x1="400" y1="600" x2="400" y2="100" stroke="#a3ac9d" stroke-width="20"/>
  </g><g transform="rotate(22 400 600)">
    <ellipse cx="400" cy="350" rx="140" ry="250" fill="#A8B89F"/>
    <line x1="400" y1="600" x2="400" y2="100" stroke="#8a9782" stroke-width="20"/>
  </g><g transform="rotate(44 400 600)">
    <ellipse cx="400" cy="350" rx="140" ry="250" fill="#C7D2C0"/>
    <line x1="400" y1="600" x2="400" y2="100" stroke="#a3ac9d" stroke-width="20"/>
  </g><g>
    <ellipse cx="400" cy="296.0" rx="27.200000000000003" ry="40" fill="#f3dc95" opacity="1" transform="rotate(0.0 400 340)"/><ellipse cx="400" cy="296.0" rx="27.200000000000003" ry="40" fill="#f3dc95" opacity="1" transform="rotate(60.0 400 340)"/><ellipse cx="400" cy="296.0" rx="27.200000000000003" ry="40" fill="#f3dc95" opacity="1" transform="rotate(120.0 400 340)"/><ellipse cx="400" cy="296.0" rx="27.200000000000003" ry="40" fill="#f3dc95" opacity="1" transform="rotate(180.0 400 340)"/><ellipse cx="400" cy="296.0" rx="27.200000000000003" ry="40" fill="#f3dc95" opacity="1" transform="rotate(240.0 400 340)"/><ellipse cx="400" cy="296.0" rx="27.200000000000003" ry="40" fill="#f3dc95" opacity="1" transform="rotate(300.0 400 340)"/>
    <ellipse cx="400" cy="308.0" rx="24" ry="33.6" fill="#F2D98C" opacity="1" transform="rotate(30.0 400 340)"/><ellipse cx="400" cy="308.0" rx="24" ry="33.6" fill="#F2D98C" opacity="1" transform="rotate(90.0 400 340)"/><ellipse cx="400" cy="308.0" rx="24" ry="33.6" fill="#F2D98C" opacity="1" transform="rotate(150.0 400 340)"/><ellipse cx="400" cy="308.0" rx="24" ry="33.6" fill="#F2D98C" opacity="1" transform="rotate(210.0 400 340)"/><ellipse cx="400" cy="308.0" rx="24" ry="33.6" fill="#F2D98C" opacity="1" transform="rotate(270.0 400 340)"/><ellipse cx="400" cy="308.0" rx="24" ry="33.6" fill="#F2D98C" opacity="1" transform="rotate(330.0 400 340)"/>
    <ellipse cx="400" cy="319.2" rx="19.2" ry="25.6" fill="#d5bf7b" opacity="1" transform="rotate(12.0 400 340)"/><ellipse cx="400" cy="319.2" rx="19.2" ry="25.6" fill="#d5bf7b" opacity="1" transform="rotate(84.0 400 340)"/><ellipse cx="400" cy="319.2" rx="19.2" ry="25.6" fill="#d5bf7b" opacity="1" transform="rotate(156.0 400 340)"/><ellipse cx="400" cy="319.2" rx="19.2" ry="25.6" fill="#d5bf7b" opacity="1" transform="rotate(228.0 400 340)"/><ellipse cx="400" cy="319.2" rx="19.2" ry="25.6" fill="#d5bf7b" opacity="1" transform="rotate(300.0 400 340)"/>
    <circle cx="400" cy="340" r="17.6" fill="#bda96d"/>
    <circle cx="400" cy="340" r="8" fill="#f6e4af" opacity="0.8"/>
  </g><g>
      <ellipse cx="296" cy="385.3" rx="8.96" ry="33.6" fill="#FFFFFF" opacity="1" transform="rotate(0.0 296 420)"/><ellipse cx="296" cy="385.3" rx="8.96" ry="33.6" fill="#FFFFFF" opacity="1" transform="rotate(30.0 296 420)"/><ellipse cx="296" cy="385.3" rx="8.96" ry="33.6" fill="#FFFFFF" opacity="1" transform="rotate(60.0 296 420)"/><ellipse cx="296" cy="385.3" rx="8.96" ry="33.6" fill="#FFFFFF" opacity="1" transform="rotate(90.0 296 420)"/><ellipse cx="296" cy="385.3" rx="8.96" ry="33.6" fill="#FFFFFF" opacity="1" transform="rotate(120.0 296 420)"/><ellipse cx="296" cy="385.3" rx="8.96" ry="33.6" fill="#FFFFFF" opacity="1" transform="rotate(150.0 296 420)"/><ellipse cx="296" cy="385.3" rx="8.96" ry="33.6" fill="#FFFFFF" opacity="1" transform="rotate(180.0 296 420)"/><ellipse cx="296" cy="385.3" rx="8.96" ry="33.6" fill="#FFFFFF" opacity="1" transform="rotate(210.0 296 420)"/><ellipse cx="296" cy="385.3" rx="8.96" ry="33.6" fill="#FFFFFF" opacity="1" transform="rotate(240.0 296 420)"/><ellipse cx="296" cy="385.3" rx="8.96" ry="33.6" fill="#FFFFFF" opacity="1" transform="rotate(270.0 296 420)"/><ellipse cx="296" cy="385.3" rx="8.96" ry="33.6" fill="#FFFFFF" opacity="1" transform="rotate(300.0 296 420)"/><ellipse cx="296" cy="385.3" rx="8.96" ry="33.6" fill="#FFFFFF" opacity="1" transform="rotate(330.0 296 420)"/>
      <ellipse cx="296" cy="385.3" rx="7.280000000000001" ry="30.800000000000008" fill="#f9edc5" opacity="1" transform="rotate(0.0 296 420)"/><ellipse cx="296" cy="385.3" rx="7.280000000000001" ry="30.800000000000008" fill="#f9edc5" opacity="1" transform="rotate(30.0 296 420)"/><ellipse cx="296" cy="385.3" rx="7.280000000000001" ry="30.800000000000008" fill="#f9edc5" opacity="1" transform="rotate(60.0 296 420)"/><ellipse cx="296" cy="385.3" rx="7.280000000000001" ry="30.800000000000008" fill="#f9edc5" opacity="1" transform="rotate(90.0 296 420)"/><ellipse cx="296" cy="385.3" rx="7.280000000000001" ry="30.800000000000008" fill="#f9edc5" opacity="1" transform="rotate(120.0 296 420)"/><ellipse cx="296" cy="385.3" rx="7.280000000000001" ry="30.800000000000008" fill="#f9edc5" opacity="1" transform="rotate(150.0 296 420)"/><ellipse cx="296" cy="385.3" rx="7.280000000000001" ry="30.800000000000008" fill="#f9edc5" opacity="1" transform="rotate(180.0 296 420)"/><ellipse cx="296" cy="385.3" rx="7.280000000000001" ry="30.800000000000008" fill="#f9edc5" opacity="1" transform="rotate(210.0 296 420)"/><ellipse cx="296" cy="385.3" rx="7.280000000000001" ry="30.800000000000008" fill="#f9edc5" opacity="1" transform="rotate(240.0 296 420)"/><ellipse cx="296" cy="385.3" rx="7.280000000000001" ry="30.800000000000008" fill="#f9edc5" opacity="1" transform="rotate(270.0 296 420)"/><ellipse cx="296" cy="385.3" rx="7.280000000000001" ry="30.800000000000008" fill="#f9edc5" opacity="1" transform="rotate(300.0 296 420)"/><ellipse cx="296" cy="385.3" rx="7.280000000000001" ry="30.800000000000008" fill="#f9edc5" opacity="1" transform="rotate(330.0 296 420)"/>
      <circle cx="296" cy="420" r="17.92" fill="#F3D98C"/>
      <circle cx="296" cy="420" r="11.200000000000003" fill="#E6B85C"/>
    </g><path d="M240 640 L560 640 L515.2 900 L284.8 900 Z" fill="#acbca4"/><rect x="224" y="600" width="352" height="50" rx="20" fill="#b6c4af"/></svg>