<svg xmlns="http://www.w3.org/2000/svg" width="800" height="1000" viewBox="0 0 800 1000"><defs><radialGradient id="g3" cx="50%" cy="38%" r="75%">
      <stop offset="0" stop-color="#fcedf4"/>
      <stop offset="1" stop-color="#F2C9DC"/>
    </radialGradient></defs>
    <rect width="800" height="1000" fill="url(#g3)"/>
    <circle cx="144" cy="200" r="104" fill="#FFFFFF" opacity="0.12"/>
    <circle cx="672" cy="700" r="128" fill="#FFFFFF" opacity="0.1"/><g transform="rotate(-40 254.4 604)">
    <ellipse cx="254.4" cy="489.6" rx="64.06400000000001" ry="114.4" fill="#B7C6AE"/>
    <line x1="254.4" y1="604" x2="254.4" y2="375.2" stroke="#96a28f" stroke-width="9.152000000000001"/>
  </g><g transform="rotate(40 545.6 604)">
    <ellipse cx="545.6" cy="489.6" rx="64.06400000000001" ry="114.4" fill="#A8B89F"/>
    <line x1="545.6" y1="604" x2="545.6" y2="375.2" stroke="#8a9782" stroke-width="9.152000000000001"/>
  </g><g>
    <ellipse cx="400" cy="385.6" rx="70.72" ry="104" fill="#eea4c5" opacity="1" transform="rotate(0.0 400 500)"/><ellipse cx="400" cy="385.6" rx="70.72" ry="104" fill="#eea4c5" opacity="1" transform="rotate(60.0 400 500)"/><ellipse cx="400" cy="385.6" rx="70.72" ry="104" fill="#eea4c5" opacity="1" transform="rotate(120.0 400 500)"/><ellipse cx="400" cy="385.6" rx="70.72" ry="104" fill="#eea4c5" opacity="1" transform="rotate(180.0 400 500)"/><ellipse cx="400" cy="385.6" rx="70.72" ry="104" fill="#eea4c5" opacity="1" transform="rotate(240.0 400 500)"/><ellipse cx="400" cy="385.6" rx="70.72" ry="104" fill="#eea4c5" opacity="1" transform="rotate(300.0 400 500)"/>
    <ellipse cx="400" cy="416.8" rx="62.4" ry="87.36" fill="#EC9CC0" opacity="1" transform="rotate(30.0 400 500)"/><ellipse cx="400" cy="416.8" rx="62.4" ry="87.36" fill="#EC9CC0" opacity="1" transform="rotate(90.0 400 500)"/><ellipse cx="400" cy="416.8" rx="62.4" ry="87.36" fill="#EC9CC0" opacity="1" transform="rotate(150.0 400 500)"/><ellipse cx="400" cy="416.8" rx="62.4" ry="87.36" fill="#EC9CC0" opacity="1" transform="rotate(210.0 400 500)"/><ellipse cx="400" cy="416.8" rx="62.4" ry="87.36" fill="#EC9CC0" opacity="1" transform="rotate(270.0 400 500)"/><ellipse cx="400" cy="416.8" rx="62.4" ry="87.36" fill="#EC9CC0" opacity="1" transform="rotate(330.0 400 500)"/>
    <ellipse cx="400" cy="445.9" rx="49.92" ry="66.56" fill="#d089a9" opacity="1" transform="rotate(12.0 400 500)"/><ellipse cx="400" cy="445.9" rx="49.92" ry="66.56" fill="#d089a9" opacity="1" transform="rotate(84.0 400 500)"/><ellipse cx="400" cy="445.9" rx="49.92" ry="66.56" fill="#d089a9" opacity="1" transform="rotate(156.0 400 500)"/><ellipse cx="400" cy="445.9" rx="49.92" ry="66.56" fill="#d089a9" opacity="1" transform="rotate(228.0 400 500)"/><ellipse cx="400" cy="445.9" rx="49.92" ry="66.56" fill="#d089a9" opacity="1" transform="rotate(300.0 400 500)"/>
    <circle cx="400" cy="500" r="45.76" fill="#b87a96"/>
    <circle cx="400" cy="500" r="20.8" fill="#f2bad3" opacity="0.8"/>
  </g><g>
      <ellipse cx="202.4" cy="470.7" rx="18.304000000000002" ry="68.64" fill="#FFFFFF" opacity="1" transform="rotate(0.0 202.4 541.6)"/><ellipse cx="202.4" cy="470.7" rx="18.304000000000002" ry="68.64" fill="#FFFFFF" opacity="1" transform="rotate(30.0 202.4 541.6)"/><ellipse cx="202.4" cy="470.7" rx="18.304000000000002" ry="68.64" fill="#FFFFFF" opacity="1" transform="rotate(60.0 202.4 541.6)"/><ellipse cx="202.4" cy="470.7" rx="18.304000000000002" ry="68.64" fill="#FFFFFF" opacity="1" transform="rotate(90.0 202.4 541.6)"/><ellipse cx="202.4" cy="470.7" rx="18.304000000000002" ry="68.64" fill="#FFFFFF" opacity="1" transform="rotate(120.0 202.4 541.6)"/><ellipse cx="202.4" cy="470.7" rx="18.304000000000002" ry="68.64" fill="#FFFFFF" opacity="1" transform="rotate(150.0 202.4 541.6)"/><ellipse cx="202.4" cy="470.7" rx="18.304000000000002" ry="68.64" fill="#FFFFFF" opacity="1" transform="rotate(180.0 202.4 541.6)"/><ellipse cx="202.4" cy="470.7" rx="18.304000000000002" ry="68.64" fill="#FFFFFF" opacity="1" transform="rotate(210.0 202.4 541.6)"/><ellipse cx="202.4" cy="470.7" rx="18.304000000000002" ry="68.64" fill="#FFFFFF" opacity="1" transform="rotate(240.0 202.4 541.6)"/><ellipse cx="202.4" cy="470.7" rx="18.304000000000002" ry="68.64" fill="#FFFFFF" opacity="1" transform="rotate(270.0 202.4 541.6)"/><ellipse cx="202.4" cy="470.7" rx="18.304000000000002" ry="68.64" fill="#FFFFFF" opacity="1" transform="rotate(300.0 202.4 541.6)"/><ellipse cx="202.4" cy="470.7" rx="18.304000000000002" ry="68.64" fill="#FFFFFF" opacity="1" transform="rotate(330.0 202.4 541.6)"/>
      <ellipse cx="202.4" cy="470.7" rx="14.872000000000002" ry="62.92000000000001" fill="#f6cddf" opacity="1" transform="rotate(0.0 202.4 541.6)"/><ellipse cx="202.4" cy="470.7" rx="14.872000000000002" ry="62.92000000000001" fill="#f6cddf" opacity="1" transform="rotate(30.0 202.4 541.6)"/><ellipse cx="202.4" cy="470.7" rx="14.872000000000002" ry="62.92000000000001" fill="#f6cddf" opacity="1" transform="rotate(60.0 202.4 541.6)"/><ellipse cx="202.4" cy="470.7" rx="14.872000000000002" ry="62.92000000000001" fill="#f6cddf" opacity="1" transform="rotate(90.0 202.4 541.6)"/><ellipse cx="202.4" cy="470.7" rx="14.872000000000002" ry="62.92000000000001" fill="#f6cddf" opacity="1" transform="rotate(120.0 202.4 541.6)"/><ellipse cx="202.4" cy="470.7" rx="14.872000000000002" ry="62.92000000000001" fill="#f6cddf" opacity="1" transform="rotate(150.0 202.4 541.6)"/><ellipse cx="202.4" cy="470.7" rx="14.872000000000002" ry="62.92000000000001" fill="#f6cddf" opacity="1" transform="rotate(180.0 202.4 541.6)"/><ellipse cx="202.4" cy="470.7" rx="14.872000000000002" ry="62.92000000000001" fill="#f6cddf" opacity="1" transform="rotate(210.0 202.4 541.6)"/><ellipse cx="202.4" cy="470.7" rx="14.872000000000002" ry="62.92000000000001" fill="#f6cddf" opacity="1" transform="rotate(240.0 202.4 541.6)"/><ellipse cx="202.4" cy="470.7" rx="14.872000000000002" ry="62.92000000000001" fill="#f6cddf" opacity="1" transform="rotate(270.0 202.4 541.6)"/><ellipse cx="202.4" cy="470.7" rx="14.872000000000002" ry="62.92000000000001" fill="#f6cddf" opacity="1" transform="rotate(300.0 202.4 541.6)"/><ellipse cx="202.4" cy="470.7" rx="14.872000000000002" ry="62.92000000000001" fill="#f6cddf" opacity="1" transform="rotate(330.0 202.4 541.6)"/>
      <circle cx="202.4" cy="541.6" r="36.608000000000004" fill="#F3D98C"/>
      <circle cx="202.4" cy="541.6" r="22.880000000000003" fill="#E6B85C"/>
    </g><g>
      <path d="M534.6800000000001 598.8000000000001 Q517.52 461.52000000000004 597.6 472.96000000000004 Q677.6800000000001 461.52000000000004 660.52 598.8000000000001 Q597.6 633.12 534.6800000000001 598.8000000000001 Z" fill="#E07AAE"/>
      <path d="M577.008 475.24800000000005 Q597.6 587.36 618.192 475.24800000000005" fill="#c56b99" opacity="0.5"/>
      <ellipse cx="597.6" cy="530.16" rx="25.168000000000003" ry="57.2" fill="#e692bd" opacity="0.7"/>
    </g></svg>