<svg xmlns="http://www.w3.org/2000/svg" width="800" height="1000" viewBox="0 0 800 1000"><defs><radialGradient id="g1" cx="50%" cy="38%" r="75%">
      <stop offset="0" stop-color="#fdf0e8"/>
      <stop offset="1" stop-color="#F6D5C2"/>
    </radialGradient></defs>
    <rect width="800" height="1000" fill="url(#g1)"/>
    <circle cx="144" cy="200" r="104" fill="#FFFFFF" opacity="0.12"/>
    <circle cx="672" cy="700" r="128" fill="#FFFFFF" opacity="0.1"/><path d="M200 500 L600 500 L472 920 L328 920 Z" fill="#f7dac9"/><path d="M400 500 L328 920" stroke="#dec4b5" stroke-width="4.8" opacity="0.6"/><path d="M400 500 L472 920" stroke="#dec4b5" stroke-width="4.8" opacity="0.6"/><g transform="rotate(-35 259.2 496.8)">
    <ellipse cx="259.2" cy="413.6" rx="46.592000000000006" ry="83.2" fill="#A8B89F"/>
    <line x1="259.2" y1="496.8" x2="259.2" y2="330.4" stroke="#8a9782" stroke-width="6.656000000000001"/>
  </g><g transform="rotate(35 540.8 496.8)">
    <ellipse cx="540.8" cy="413.6" rx="46.592000000000006" ry="83.2" fill="#C7D2C0"/>
    <line x1="540.8" y1="496.8" x2="540.8" y2="330.4" stroke="#a3ac9d" stroke-width="6.656000000000001"/>
  </g><g transform="rotate(0 400 535.2)">
    <ellipse cx="400" cy="458.40000000000003" rx="43.008" ry="76.8" fill="#B7C6AE"/>
    <line x1="400" y1="535.2" x2="400" y2="381.6" stroke="#96a28f" stroke-width="6.144"/>
  </g><g>
    <ellipse cx="400" cy="320.5" rx="45.696000000000005" ry="67.2" fill="#f1b095" opacity="1" transform="rotate(0.0 400 394.4)"/><ellipse cx="400" cy="320.5" rx="45.696000000000005" ry="67.2" fill="#f1b095" opacity="1" transform="rotate(60.0 400 394.4)"/><ellipse cx="400" cy="320.5" rx="45.696000000000005" ry="67.2" fill="#f1b095" opacity="1" transform="rotate(120.0 400 394.4)"/><ellipse cx="400" cy="320.5" rx="45.696000000000005" ry="67.2" fill="#f1b095" opacity="1" transform="rotate(180.0 400 394.4)"/><ellipse cx="400" cy="320.5" rx="45.696000000000005" ry="67.2" fill="#f1b095" opacity="1" transform="rotate(240.0 400 394.4)"/><ellipse cx="400" cy="320.5" rx="45.696000000000005" ry="67.2" fill="#f1b095" opacity="1" transform="rotate(300.0 400 394.4)"/>
    <ellipse cx="400" cy="340.6" rx="40.32" ry="56.448" fill="#F0A98C" opacity="1" transform="rotate(30.0 400 394.4)"/><ellipse cx="400" cy="340.6" rx="40.32" ry="56.448" fill="#F0A98C" opacity="1" transform="rotate(90.0 400 394.4)"/><ellipse cx="400" cy="340.6" rx="40.32" ry="56.448" fill="#F0A98C" opacity="1" transform="rotate(150.0 400 394.4)"/><ellipse cx="400" cy="340.6" rx="40.32" ry="56.448" fill="#F0A98C" opacity="1" transform="rotate(210.0 400 394.4)"/><ellipse cx="400" cy="340.6" rx="40.32" ry="56.448" fill="#F0A98C" opacity="1" transform="rotate(270.0 400 394.4)"/><ellipse cx="400" cy="340.6" rx="40.32" ry="56.448" fill="#F0A98C" opacity="1" transform="rotate(330.0 400 394.4)"/>
    <ellipse cx="400" cy="359.5" rx="32.256" ry="43.008" fill="#d3957b" opacity="1" transform="rotate(12.0 400 394.4)"/><ellipse cx="400" cy="359.5" rx="32.256" ry="43.008" fill="#d3957b" opacity="1" transform="rotate(84.0 400 394.4)"/><ellipse cx="400" cy="359.5" rx="32.256" ry="43.008" fill="#d3957b" opacity="1" transform="rotate(156.0 400 394.4)"/><ellipse cx="400" cy="359.5" rx="32.256" ry="43.008" fill="#d3957b" opacity="1" transform="rotate(228.0 400 394.4)"/><ellipse cx="400" cy="359.5" rx="32.256" ry="43.008" fill="#d3957b" opacity="1" transform="rotate(300.0 400 394.4)"/>
    <circle cx="400" cy="394.4" r="29.568" fill="#bb846d"/>
    <circle cx="400" cy="394.4" r="13.440000000000001" fill="#f5c3af" opacity="0.8"/>
  </g><g>
    <ellipse cx="265.6" cy="379.4" rx="36.992000000000004" ry="54.4" fill="#f7cdb6" opacity="1" transform="rotate(0.0 265.6 439.2)"/><ellipse cx="265.6" cy="379.4" rx="36.992000000000004" ry="54.4" fill="#f7cdb6" opacity="1" transform="rotate(60.0 265.6 439.2)"/><ellipse cx="265.6" cy="379.4" rx="36.992000000000004" ry="54.4" fill="#f7cdb6" opacity="1" transform="rotate(120.0 265.6 439.2)"/><ellipse cx="265.6" cy="379.4" rx="36.992000000000004" ry="54.4" fill="#f7cdb6" opacity="1" transform="rotate(180.0 265.6 439.2)"/><ellipse cx="265.6" cy="379.4" rx="36.992000000000004" ry="54.4" fill="#f7cdb6" opacity="1" transform="rotate(240.0 265.6 439.2)"/><ellipse cx="265.6" cy="379.4" rx="36.992000000000004" ry="54.4" fill="#f7cdb6" opacity="1" transform="rotate(300.0 265.6 439.2)"/>
    <ellipse cx="265.6" cy="395.7" rx="32.64" ry="45.696" fill="#F6C9B0" opacity="1" transform="rotate(30.0 265.6 439.2)"/><ellipse cx="265.6" cy="395.7" rx="32.64" ry="45.696" fill="#F6C9B0" opacity="1" transform="rotate(90.0 265.6 439.2)"/><ellipse cx="265.6" cy="395.7" rx="32.64" ry="45.696" fill="#F6C9B0" opacity="1" transform="rotate(150.0 265.6 439.2)"/><ellipse cx="265.6" cy="395.7" rx="32.64" ry="45.696" fill="#F6C9B0" opacity="1" transform="rotate(210.0 265.6 439.2)"/><ellipse cx="265.6" cy="395.7" rx="32.64" ry="45.696" fill="#F6C9B0" opacity="1" transform="rotate(270.0 265.6 439.2)"/><ellipse cx="265.6" cy="395.7" rx="32.64" ry="45.696" fill="#F6C9B0" opacity="1" transform="rotate(330.0 265.6 439.2)"/>
    <ellipse cx="265.6" cy="410.9" rx="26.112" ry="34.816" fill="#d8b19b" opacity="1" transform="rotate(12.0 265.6 439.2)"/><ellipse cx="265.6" cy="410.9" rx="26.112" ry="34.816" fill="#d8b19b" opacity="1" transform="rotate(84.0 265.6 439.2)"/><ellipse cx="265.6" cy="410.9" rx="26.112" ry="34.816" fill="#d8b19b" opacity="1" transform="rotate(156.0 265.6 439.2)"/><ellipse cx="265.6" cy="410.9" rx="26.112" ry="34.816" fill="#d8b19b" opacity="1" transform="rotate(228.0 265.6 439.2)"/><ellipse cx="265.6" cy="410.9" rx="26.112" ry="34.816" fill="#d8b19b" opacity="1" transform="rotate(300.0 265.6 439.2)"/>
    <circle cx="265.6" cy="439.2" r="23.936" fill="#c09d89"/>
    <circle cx="265.6" cy="439.2" r="10.88" fill="#f9d9c8" opacity="0.8"/>
  </g><g>
      <ellipse cx="534.4" cy="371.7" rx="17.408" ry="65.28" fill="#FFFFFF" opacity="1" transform="rotate(0.0 534.4 439.2)"/><ellipse cx="534.4" cy="371.7" rx="17.408" ry="65.28" fill="#FFFFFF" opacity="1" transform="rotate(30.0 534.4 439.2)"/><ellipse cx="534.4" cy="371.7" rx="17.408" ry="65.28" fill="#FFFFFF" opacity="1" transform="rotate(60.0 534.4 439.2)"/><ellipse cx="534.4" cy="371.7" rx="17.408" ry="65.28" fill="#FFFFFF" opacity="1" transform="rotate(90.0 534.4 439.2)"/><ellipse cx="534.4" cy="371.7" rx="17.408" ry="65.28" fill="#FFFFFF" opacity="1" transform="rotate(120.0 534.4 439.2)"/><ellipse cx="534.4" cy="371.7" rx="17.408" ry="65.28" fill="#FFFFFF" opacity="1" transform="rotate(150.0 534.4 439.2)"/><ellipse cx="534.4" cy="371.7" rx="17.408" ry="65.28" fill="#FFFFFF" opacity="1" transform="rotate(180.0 534.4 439.2)"/><ellipse cx="534.4" cy="371.7" rx="17.408" ry="65.28" fill="#FFFFFF" opacity="1" transform="rotate(210.0 534.4 439.2)"/><ellipse cx="534.4" cy="371.7" rx="17.408" ry="65.28" fill="#FFFFFF" opacity="1" transform="rotate(240.0 534.4 439.2)"/><ellipse cx="534.4" cy="371.7" rx="17.408" ry="65.28" fill="#FFFFFF" opacity="1" transform="rotate(270.0 534.4 439.2)"/><ellipse cx="534.4" cy="371.7" rx="17.408" ry="65.28" fill="#FFFFFF" opacity="1" transform="rotate(300.0 534.4 439.2)"/><ellipse cx="534.4" cy="371.7" rx="17.408" ry="65.28" fill="#FFFFFF" opacity="1" transform="rotate(330.0 534.4 439.2)"/>
      <ellipse cx="534.4" cy="371.7" rx="14.144" ry="59.84" fill="#ecac92" opacity="1" transform="rotate(0.0 534.4 439.2)"/><ellipse cx="534.4" cy="371.7" rx="14.144" ry="59.84" fill="#ecac92" opacity="1" transform="rotate(30.0 534.4 439.2)"/><ellipse cx="534.4" cy="371.7" rx="14.144" ry="59.84" fill="#ecac92" opacity="1" transform="rotate(60.0 534.4 439.2)"/><ellipse cx="534.4" cy="371.7" rx="14.144" ry="59.84" fill="#ecac92" opacity="1" transform="rotate(90.0 534.4 439.2)"/><ellipse cx="534.4" cy="371.7" rx="14.144" ry="59.84" fill="#ecac92" opacity="1" transform="rotate(120.0 534.4 439.2)"/><ellipse cx="534.4" cy="371.7" rx="14.144" ry="59.84" fill="#ecac92" opacity="1" transform="rotate(150.0 534.4 439.2)"/><ellipse cx="534.4" cy="371.7" rx="14.144" ry="59.84" fill="#ecac92" opacity="1" transform="rotate(180.0 534.4 439.2)"/><ellipse cx="534.4" cy="371.7" rx="14.144" ry="59.84" fill="#ecac92" opacity="1" transform="rotate(210.0 534.4 439.2)"/><ellipse cx="534.4" cy="371.7" rx="14.144" ry="59.84" fill="#ecac92" opacity="1" transform="rotate(240.0 534.4 439.2)"/><ellipse cx="534.4" cy="371.7" rx="14.144" ry="59.84" fill="#ecac92" opacity="1" transform="rotate(270.0 534.4 439.2)"/><ellipse cx="534.4" cy="371.7" rx="14.144" ry="59.84" fill="#ecac92" opacity="1" transform="rotate(300.0 534.4 439.2)"/><ellipse cx="534.4" cy="371.7" rx="14.144" ry="59.84" fill="#ecac92" opacity="1" transform="rotate(330.0 534.4 439.2)"/>
      <circle cx="534.4" cy="439.2" r="34.816" fill="#F3D98C"/>
      <circle cx="534.4" cy="439.2" r="21.76" fill="#E6B85C"/>
    </g><g>
      <path d="M286.72 580 Q273.28000000000003 472.4800000000001 336 481.44000000000005 Q398.71999999999997 472.4800000000001 385.28 580 Q336 606.88 286.72 580 Z" fill="#F0A98C"/>
      <path d="M319.872 483.232 Q336 571.0400000000001 352.128 483.232" fill="#d3957b" opacity="0.5"/>
      <ellipse cx="336" cy="526.24" rx="19.712" ry="44.8" fill="#f3b8a1" opacity="0.7"/>
    </g><g>
    <ellipse cx="464" cy="485.9" rx="30.464" ry="44.8" fill="#f7cdb6" opacity="1" transform="rotate(0.0 464 535.2)"/><ellipse cx="464" cy="485.9" rx="30.464" ry="44.8" fill="#f7cdb6" opacity="1" transform="rotate(60.0 464 535.2)"/><ellipse cx="464" cy="485.9" rx="30.464" ry="44.8" fill="#f7cdb6" opacity="1" transform="rotate(120.0 464 535.2)"/><ellipse cx="464" cy="485.9" rx="30.464" ry="44.8" fill="#f7cdb6" opacity="1" transform="rotate(180.0 464 535.2)"/><ellipse cx="464" cy="485.9" rx="30.464" ry="44.8" fill="#f7cdb6" opacity="1" transform="rotate(240.0 464 535.2)"/><ellipse cx="464" cy="485.9" rx="30.464" ry="44.8" fill="#f7cdb6" opacity="1" transform="rotate(300.0 464 535.2)"/>
    <ellipse cx="464" cy="499.4" rx="26.88" ry="37.632" fill="#F6C9B0" opacity="1" transform="rotate(30.0 464 535.2)"/><ellipse cx="464" cy="499.4" rx="26.88" ry="37.632" fill="#F6C9B0" opacity="1" transform="rotate(90.0 464 535.2)"/><ellipse cx="464" cy="499.4" rx="26.88" ry="37.632" fill="#F6C9B0" opacity="1" transform="rotate(150.0 464 535.2)"/><ellipse cx="464" cy="499.4" rx="26.88" ry="37.632" fill="#F6C9B0" opacity="1" transform="rotate(210.0 464 535.2)"/><ellipse cx="464" cy="499.4" rx="26.88" ry="37.632" fill="#F6C9B0" opacity="1" transform="rotate(270.0 464 535.2)"/><ellipse cx="464" cy="499.4" rx="26.88" ry="37.632" fill="#F6C9B0" opacity="1" transform="rotate(330.0 464 535.2)"/>
    <ellipse cx="464" cy="511.9" rx="21.503999999999998" ry="28.671999999999997" fill="#d8b19b" opacity="1" transform="rotate(12.0 464 535.2)"/><ellipse cx="464" cy="511.9" rx="21.503999999999998" ry="28.671999999999997" fill="#d8b19b" opacity="1" transform="rotate(84.0 464 535.2)"/><ellipse cx="464" cy="511.9" rx="21.503999999999998" ry="28.671999999999997" fill="#d8b19b" opacity="1" transform="rotate(156.0 464 535.2)"/><ellipse cx="464" cy="511.9" rx="21.503999999999998" ry="28.671999999999997" fill="#d8b19b" opacity="1" transform="rotate(228.0 464 535.2)"/><ellipse cx="464" cy="511.9" rx="21.503999999999998" ry="28.671999999999997" fill="#d8b19b" opacity="1" transform="rotate(300.0 464 535.2)"/>
    <circle cx="464" cy="535.2" r="19.712" fill="#c09d89"/>
    <circle cx="464" cy="535.2" r="8.959999999999999" fill="#f9d9c8" opacity="0.8"/>
  </g><circle cx="400" cy="710" r="24" fill="#eabb9e"/></svg>